<svg width="124" height="104" viewBox="0 0 124 104" fill="none" xmlns="http://www.w3.org/2000/svg">
<path d="M70.7344 103.133V74.8125C70.7344 59.9688 72.4922 47.7943 76.0078 38.2891C79.6536 28.7839 85.7734 20.7109 94.3672 14.0703C102.961 7.42969 112.727 3.0026 123.664 0.789062V23.4453C115.982 27.8724 111.62 33.7969 110.578 41.2188H123.664V103.133H70.7344ZM0.03125 103.133V74.8125C0.03125 59.9688 1.78906 47.7943 5.30469 38.2891C8.95052 28.7839 15.0703 20.7109 23.6641 14.0703C32.388 7.42969 42.1536 3.0026 52.9609 0.789062V23.4453C45.2786 27.8724 40.9167 33.7969 39.875 41.2188H52.9609V103.133H0.03125Z" fill="black"/>
</svg>
