<svg width="124" height="104" viewBox="0 0 124 104" fill="none" xmlns="http://www.w3.org/2000/svg">
<path d="M123.664 0.789062V29.1094C123.664 43.8229 121.906 55.9974 118.391 65.6328C114.875 75.138 108.755 83.2109 100.031 89.8516C91.4375 96.362 81.6719 100.789 70.7344 103.133V80.2812C78.4167 75.9844 82.7786 70.125 83.8203 62.7031H70.7344V0.789062H123.664ZM52.9609 0.789062V29.1094C52.9609 43.8229 51.2031 55.9974 47.6875 65.6328C44.1719 75.138 38.0521 83.2109 29.3281 89.8516C20.7344 96.362 10.9688 100.789 0.03125 103.133V80.2812C7.84375 75.9844 12.2708 70.125 13.3125 62.7031H0.03125V0.789062H52.9609Z" fill="black"/>
</svg>
