<?xml version="1.0" encoding="utf-8"?>
<!-- Generator: Adobe Illustrator 28.0.0, SVG Export Plug-In . SVG Version: 6.00 Build 0)  -->
<svg version="1.1" id="Layer_1" xmlns="http://www.w3.org/2000/svg" xmlns:xlink="http://www.w3.org/1999/xlink" x="0px" y="0px"
	 viewBox="0 0 673 673" style="enable-background:new 0 0 673 673;" xml:space="preserve">
<g>
	<path d="M336.6,149C233,149,149,233.1,149,336.6S233,524,336.6,524S524,440,524,336.6S440.2,149,336.6,149z M336.6,511.7
		c-96.8,0-175.3-78.5-175.3-175.3s78.5-175.3,175.3-175.3s175.1,78.6,175.1,175.4S433.4,511.7,336.6,511.7z"/>
	<path d="M407.8,275.4H320v17.8h87.9V275.4z"/>
	<path d="M284.1,303.2c10.4,0,18.9-8.5,18.9-18.9c0-10.4-8.5-18.9-18.9-18.9c-10.4,0-18.9,8.5-18.9,18.9
		C265.2,294.7,273.7,303.2,284.1,303.2z"/>
	<path d="M284.1,355.4c10.4,0,18.9-8.4,18.9-18.9s-8.5-18.8-18.9-18.8c-10.4,0-18.9,8.5-18.9,18.8S273.7,355.4,284.1,355.4z"/>
	<path d="M284.1,407.7c10.4,0,18.9-8.4,18.9-18.9s-8.5-18.9-18.9-18.9c-10.4,0-18.9,8.5-18.9,18.9
		C265.2,399.1,273.7,407.7,284.1,407.7z"/>
	<path d="M407.8,327.6H320v17.6h87.9V327.6z"/>
	<path d="M407.8,379.9H320v17.6h87.9V379.9z"/>
</g>
</svg>
