<?xml version="1.0" encoding="utf-8"?>
<!-- Generator: Adobe Illustrator 28.0.0, SVG Export Plug-In . SVG Version: 6.00 Build 0)  -->
<svg version="1.1" id="Layer_2_00000163068712730363618380000010982622454096471965_"
	 xmlns="http://www.w3.org/2000/svg" xmlns:xlink="http://www.w3.org/1999/xlink" x="0px" y="0px" viewBox="0 0 369.5 84.9"
	 style="enable-background:new 0 0 369.5 84.9;" xml:space="preserve">
<style type="text/css">
	.st0{fill:#443937;}
	.st1{fill-rule:evenodd;clip-rule:evenodd;fill:#443937;}
</style>
<g id="Layer_1-2">
	<g>
		<path class="st0" d="M200.7,59.2c-0.2-0.7-0.4-1.5-0.9-2.1c-0.4-0.5-0.7-1.1-0.7-1.8c-0.1-0.8-0.4-1.5-0.7-2.2
			c-0.2-0.4-0.4-0.8-0.6-1.2c-0.2-0.4-0.3-0.9-0.4-1.3c-0.2-0.4-0.5-0.8-0.6-1.2c-0.2-1-0.8-1.8-1.1-2.8s-0.9-1.8-1.7-2.5
			c-0.2-0.2-0.4-0.3-0.6-0.2c-0.4,0.1-0.7,0-1-0.2c-0.3,0.1-0.5,0.1-0.8,0.2c0.1,0.2,0.1,0.4,0.2,0.5V45c-0.1,0.1-0.1,0.3-0.2,0.4
			c-0.1,0.1-0.2,0-0.4-0.1s-0.3-0.2-0.5-0.1c-0.2,0-0.3,0.3-0.3,0.5c0.1,0.1,0.1,0.3,0.2,0.3c0.2,0.1,0.4,0.1,0.6,0.1
			s0.4,0.1,0.6,0.2c0.2,0,0.3,0.2,0.2,0.4c-0.1,0.1-0.1,0.3-0.2,0.3c-0.2,0.1-0.4,0.2-0.6,0.2c-0.4,0-0.7,0.1-1.1,0.3
			c-0.1,0-0.2,0-0.3-0.1c-0.2-0.2-0.4-0.3-0.7-0.3c-0.1,0-0.2,0.1-0.2,0.2s0,0.2,0.1,0.3c0.3,0.4,0.7,0.6,1.1,0.7
			c0.3,0.1,0.6,0.1,0.8-0.1c0.1-0.1,0.3-0.2,0.4-0.3c0.2-0.1,0.4-0.2,0.6-0.1c0.4,0.1,0.7,0.2,1,0.3c0.2,0.1,0.3,0,0.4-0.2
			c0.1-0.3,0.1-0.5,0.2-0.8c0.1-0.1,0.2-0.1,0.3-0.1c0.2,0,0.4,0.1,0.5,0.2c0.1,0.1,0.2,0.3,0.3,0.4c1,1.6,2.1,3.2,2.9,4.9
			c0.1,0.1,0,0.2-0.1,0.2l-0.1-0.1c-0.3-0.5-0.6-0.9-0.9-1.4c-0.2-0.3-0.4-0.5-0.8-0.5c-0.1,0-0.2,0.2-0.2,0.2
			c0.1,0.5,0.2,1,0.3,1.5c0.2,0.4,0.3,0.7,0.4,1.1c0.1,0.4-0.3,0.9-0.7,1c-0.2,0-0.4,0-0.6,0.1c-0.4,0.3-0.9,0.1-1.4,0.2
			c-0.1,0.1-0.2,0-0.3-0.1c-0.2-0.1-0.4-0.3-0.6-0.5c-0.1-0.1-0.4-0.1-0.6-0.1c0,0.2-0.1,0.3-0.1,0.5c0,0.5,0.4,0.9,0.4,1.4
			c-0.1,0.5,0.3,0.9,0.6,1.3c0.2,0.3,0.4,0.6,0.5,0.9c0.1,0.3,0.1,0.4-0.1,0.6c-0.5,0.4-0.6,0.9-0.5,1.5c0.1,0.5,0.2,1,0.3,1.5
			c0.3,1,0.4,2,0.5,3.1c0.1,0.4,0.1,0.9,0.2,1.3c0.4,1.2,0.4,2.4,0.4,3.6c0,0.4-0.1,0.7,0.1,1c0.5,0.8,0.5,1.7,0.7,2.6
			c0.2,0.7,0.2,1.3,0.3,2c0.1,0.4,0.2,0.8,0.2,1.2c-0.1,0.4-0.2,0.9-0.3,1.3c-0.1,0.3-0.3,0.5-0.6,0.5c-0.4,0-0.9,0.1-1.3,0.1
			c-0.2,0-0.4,0.2-0.4,0.4v0.5c-0.1,0.3-0.2,0.5-0.5,0.6c-0.1,0-0.2,0.1-0.3,0.1c-0.3,0-0.5,0.2-0.7,0.4c-0.2,0.3-0.5,0.5-0.9,0.6
			c-0.2,0.1-0.5,0-0.6-0.3s-0.2-0.5-0.2-0.8c0-0.5-0.1-0.9-0.3-1.3c-0.1-0.1-0.1-0.4-0.2-0.6c-0.1-0.3-0.1-0.6-0.2-0.8
			c-0.4-0.7-0.5-1.4-0.5-2.1c0-0.3,0-0.7-0.1-1c0-0.3-0.1-0.5-0.3-0.6c-0.5-0.2-0.5-0.7-0.6-1.1c-0.3-2.4-0.2-4.8-0.2-7.2V65
			c0.1-0.5,0.1-1,0.2-1.5c-0.3-0.9-0.1-1.9-0.4-2.8c-0.1-0.6-0.1-1.2,0-1.8s0.2-1.1,0.2-1.7c0-0.3,0-0.5-0.1-0.7s-0.1-0.4,0-0.6
			c0.4-0.8,0.4-1.8,0.7-2.6c0.1-0.2,0.1-0.5,0.1-0.7c-0.1-1.3,0-2.6-0.5-3.8c0-0.1,0.1-0.2,0.1-0.3c0.1,0.1,0.3,0.1,0.3,0.2
			c0.2,0.3,0.2,0.7,0.5,0.9c0.5,0.4,0.8,1,0.9,1.6c0.1,0.4,0.3,0.7,0.5,0.9s0.4,0.3,0.5,0.5c0.6,0.7,1.4,1.1,2.2,1.5
			c-0.1-0.4-0.2-0.8-0.6-1.1c-0.2-0.1-0.4-0.3-0.6-0.5c-0.7-0.4-1-1-1.1-1.8c0-0.3-0.2-0.5-0.4-0.7c-0.1-0.2-0.3-0.4-0.5-0.6
			c-0.2-0.3-0.3-0.5-0.2-0.8c0.1-0.2,0-0.3,0-0.5c-0.1-0.2-0.2-0.4-0.4-0.5c-0.1,0-0.3,0.1-0.4,0.2c-0.2,0.1-0.3,0.1-0.4-0.1
			c-0.1-0.2-0.2-0.3-0.2-0.5c0-0.1,0-0.2,0.1-0.3s0.3-0.2,0.4-0.3c0.4-0.3,0.8-0.6,1.1-1c0.2-0.3,0.4-0.4,0.6-0.6
			c0.6-0.4,1.2-0.8,1.8-1c0-0.1-0.1-0.3-0.1-0.5c0.3-0.1,0.6-0.1,0.8,0.1l0.1,0.1c0,0,0,0,0.1,0c0.2-0.2,0.4-0.3,0.6-0.4
			c0.4-0.3,0.5-0.7,0.5-1.2c0-0.2,0-0.3-0.1-0.5c-0.1-0.4-0.3-0.7-0.8-0.7c-0.3-0.1-0.6-0.1-0.8-0.2c-0.4-0.3-0.9-0.3-1.3-0.3h-1.5
			c-0.4,0-0.8-0.1-1.1-0.3l-0.1-0.1c0.1-0.2,0.1-0.3,0.2-0.5c0.2-0.6,0-1-0.5-1.2s-1.1-0.3-1.6-0.5c-0.9-0.2-1.7-0.5-2.6-0.7
			c-0.4-0.2-0.6-0.5-0.6-0.9c0-0.3,0.1-0.5,0.1-0.8c0.1-1,0.2-2.1,0-3.1V31c0.1-0.5,0.1-1,0.4-1.4h0.1l0.1,0.1v1.7
			c0,0.2,0,0.4,0.1,0.6c0,0.1,0.3,0.2,0.4,0.1c0.1-0.1,0.3-0.3,0.3-0.4c0-0.3,0.1-0.7,0.1-1v-0.5l0.1-0.1c0.2-0.1,0.3,0,0.3,0.1
			c0.2,0.6,0.4,1.1,0.6,1.6c0,0.1,0.3,0.2,0.4,0.2c0,0,0.2-0.1,0.2-0.2c0.3-0.6,0.4-1.2,0.2-1.8c-0.2-0.9-0.4-1.9-0.6-2.8
			c-0.1-0.2,0.1-0.5,0.3-0.5c0.7-0.1,1.3-0.3,1.9-0.6c0.4-0.1,0.6-0.5,0.5-0.9h-0.8c-0.4,0-0.9,0.1-1.3,0.1c-0.3,0-0.6-0.1-0.8-0.3
			c-0.2-0.2-0.3-0.4-0.5-0.5c-0.1-0.1-0.2-0.2-0.4-0.3s-0.3-0.1-0.5,0c-0.4,0.1-0.6,0.5-1,0.6c-0.3,0.1-0.9,0-1-0.3
			c-0.2-0.3-0.3-0.6-0.4-0.9c-0.1-0.4-0.2-0.9-0.4-1.4c-0.2-0.8-0.3-1.5,0-2.3c0.1-0.3,0.2-0.5,0.2-0.8c0-0.7,0.4-1.3,0.6-1.9
			c0.1-0.3,0.3-0.4,0.5-0.4c0.5,0,0.9-0.3,1.4-0.4c0.2-0.1,0.3-0.2,0.3-0.4c-0.1-0.5,0.4-0.9,0.4-1.4c0-0.2,0.1-0.4,0.2-0.5
			c0.1-0.2,0.5-0.3,0.7-0.2c0.4,0.3,0.7,0.5,1.1,0.8c0.8,0.1,1.4,0.8,2.1,1.2c0.7,0.5,1.1,1,1.4,1.8l0.1,0.1
			c0.1,0.1,0.2,0.1,0.4,0.1c0.2-0.1,0.3,0.1,0.4,0.2c0.1,0.2,0.2,0.4,0.3,0.6c0.4,1.5,1,2.9,1.4,4.3c0,0.1,0.1,0.3,0.2,0.4
			c0.1,0.1,0.2,0.1,0.3,0.2c0.1-0.6-0.1-1.1,0-1.5c0-0.3,0-0.6,0.2-0.8c0.1-0.1,0.2-0.2,0.3-0.2s0.2,0,0.3,0.1
			c0.1,0.2,0.2,0.4,0.3,0.6v-0.1v-0.8c0-0.3,0.1-0.5,0-0.7c-0.1-0.4-0.2-0.8,0-1.3c0.2-0.4-0.1-0.7-0.2-1.1
			c-0.1-0.3-0.4-0.6-0.7-0.7c-0.5-0.2-0.9-0.4-1.4-0.6c-0.2-0.5-0.8-0.7-1.2-1.1c-0.4-0.4-0.9-0.7-1.4-0.9c-0.9-0.5-1.9-0.7-2.6-1.5
			c-0.1-0.1-0.2-0.2-0.4-0.2c-0.8-0.2-1.4-0.6-1.9-1.1c0-0.1,0-0.1-0.1-0.1c-0.2-0.1-0.5,0-0.6,0.2c-0.2,0.8-0.8,1.2-1.6,1.5
			c-0.6,0.2-1.2,0.4-1.8,0.8c-0.1,0.1-0.4,0.1-0.6,0.1c-0.3,0-0.5-0.1-0.7-0.1c-0.5-0.1-0.7,0.1-0.9,0.5c-0.1,0.3-0.4,0.4-0.7,0.4
			c-0.6,0.1-1.1,0.4-1.7,0.6c-0.2,0.1-0.4,0.3-0.4,0.5c-0.1,0.2-0.1,0.4-0.3,0.4c-0.4,0-0.5,0.2-0.6,0.6c-0.1,0.7-0.3,1.3-0.3,2
			c0.1,0.8,0.1,1.6,0.4,2.3c0.3,0.6,0.3,1.2,0.3,1.8c0,0.6,0,1.2-0.1,1.8c-0.1,0.7,0,1.3,0,2c0,0.4,0.2,0.8,0.4,1.1
			c0.2,0.3,0.4,0.6,0.5,0.9c0.4,1.3,0.7,2.6,1,3.9v0.5c0,0.1,0.1,0.2,0.1,0.3s0,0.1,0.1,0.1l0.1-0.1c0.3-0.3,0.1-0.5,0.1-0.8
			c0.1-0.2,0.2-0.4,0.4-0.5c0.1,0,0.3-0.1,0.4-0.2c0.1-0.2,0-0.4-0.1-0.6c-0.2-0.6-0.5-1.2-0.8-1.8s-0.4-1.2-0.4-1.8
			c0-0.4,0-0.7-0.1-1c-0.2-0.5-0.3-1-0.3-1.6c0-0.2,0.2-0.3,0.3-0.3c0.3,0.1,0.5,0.3,0.8,0.3c0.4,0.1,0.6,0.3,0.7,0.6
			c0.4,1.2,0.9,2.3,1.4,3.4c0.1,0.2,0.2,0.4,0.3,0.6s0,0.3,0,0.5c0,0.1-0.1,0.2,0,0.3c0.2,0.4,0.2,0.9,0.3,1.3
			c0.1,0.3,0,0.6-0.2,0.9c-0.4,0.6-0.7,1.1-0.9,1.8c-0.1,0.5-0.4,0.6-0.8,0.5c-0.1,0.2-0.2,0.3-0.4,0.4l0,0c0.1,0.1,0.1,0.2,0.2,0.4
			c0.2,0.3,0.2,0.5,0.2,0.8v1c0.1,0.9,0.2,1.8,0.1,2.8c0,0.3,0.1,0.5,0.1,0.7c0.1,0.5,0.3,1.1,0.4,1.6c0.1,0.4,0.3,0.7,0.4,1.1
			c0,0.1,0.1,0.2,0.2,0.2c0.2,0.1,0.3-0.1,0.3-0.3v-1.2c0-0.3,0.1-0.5,0.2-0.8c0.1-0.3,0.3-0.4,0.5-0.2c0.4,0.3,0.8,0.8,1.3,1
			c0.2,0.1,0.3,0.3,0.4,0.5c0.2,0.3,0.1,0.4-0.1,0.5c-0.3,0.2-0.7,0.4-0.9,0.7c0.3,0.3,0.3,0.7,0.3,1.1c0,0.2-0.2,0.3-0.3,0.3
			c-0.2,0-0.3-0.1-0.3-0.3c-0.1-0.3,0.1-0.7,0.3-1c-0.2,0-0.4-0.1-0.6-0.2h-0.3c-0.3,0.3-0.5,0.6-0.7,0.9v0.3c0,0.2,0,0.3,0.1,0.5
			c0.2,0.5,0.2,1,0,1.5c-0.1,0.3-0.1,0.7-0.1,1c0.1,1.2,0.4,2.4,1,3.5c0.4,0.8,0.6,1.6,0.7,2.4c0.1,0.4,0.1,0.8,0.2,1.2
			c0.2,0.7,0.2,1.5,0.2,2.2c-0.1,0.4-0.1,0.8-0.1,1.3c-0.1,1.7,0,3.4,0.5,5c0.1,0.5,0.3,1,0.2,1.5c-0.1,0.2,0,0.6,0.1,0.8
			c0.3,0.5,0.6,1.1,0.9,1.6s0.3,1.1,0.6,1.7c0.5,0.9,0.7,1.9,0.7,2.9c0,0.6,0.1,1.2,0.1,1.8c0,0.9,0.3,1.7,0.8,2.5
			c0,0.1,0.1,0.1,0.1,0.1c0.1,0,0.1-0.1,0.1-0.2c-0.1-0.5-0.2-1-0.3-1.5l0.1-0.1c0.1,0,0.3,0,0.3,0.1c0.5,0.6,0.5,1.4,0.7,2.2
			c0.1,0.1-0.1,0.3-0.2,0.4c0,0.2-0.1,0.4,0,0.5c0.4,0.7,0.3,1.5,0.3,2.3c0,0.1-0.1,0.2-0.2,0.2c-0.2,0.1-0.5,0.1-0.6-0.1
			c-0.4-0.7-0.8-1.3-1.2-2c-0.1-0.2-0.2-0.3-0.3-0.4c-0.2-0.2-0.8-0.2-0.9,0.1c-0.1,0.2-0.1,0.4-0.2,0.6c-0.1,0.2-0.3,0.4-0.5,0.4
			c-1.2,0.1-2.5,0.1-3.8,0.2c-0.5,0-1,0-1.5,0.1c-0.2,0-0.3,0.2-0.4,0.3v0.3c0,0.5-0.1,0.5-0.4,0.6c-0.2,0.1-0.5,0.1-0.8,0.2
			c-1.1,0.3-2.2,0.4-3.3,0.4s-2.2,0-3.3,0.1c-0.7,0.1-1.4,0.3-2.1,0.2c-0.3,0-0.6,0.1-0.8,0.3c-0.3,0.3-0.3,0.8,0.1,1
			c1.1,0.5,2.2,0.6,3.3,0.5c0.9-0.1,1.7-0.2,2.5-0.4c0.3-0.1,0.7-0.1,1.1,0c0.5,0.1,1,0.1,1.5-0.1c0.2-0.1,0.5-0.1,0.8-0.1
			c0.8-0.1,1.5-0.1,2.2-0.2c0.9-0.2,1.9-0.1,2.8-0.2c0.1-0.1,0.2,0,0.3,0c0.5,0.2,1,0.3,1.5,0.3c0.5,0.1,0.8,0.6,1.3,0.7
			c0,0,0.1,0,0.1,0.1l-0.1,0.1c-0.3,0.1-0.5,0.1-0.8,0.2c0,0-0.1,0.2-0.1,0.3c0.1,0.3,0.4,0.6,0.7,0.5c0.7-0.3,1.5-0.3,2.3-0.2h1
			c0.3,0,0.7-0.1,1-0.1c0.4,0,0.7,0.2,1,0.2s0.7,0,1-0.1c1-0.3,2-0.3,3-0.1c0.4,0.1,0.9,0.1,1.3,0.1c0.7,0,1.4,0,2,0.2h0.7
			c0.1,0,0.4-0.2,0.4-0.4c0-0.4-0.1-0.8-0.1-1.2c0-0.5,0.5-0.8,0.6-1.2c0-0.2,0.1-0.2,0.5-0.3c0.3-0.1,0.4-0.1,0.4-0.3
			c0.1-0.8,0-1.5,0.2-2.2c0.1-0.3,0-0.7-0.1-1c-0.3-0.8-0.2-1.6,0.1-2.4c0.2-0.4,0.3-0.9,0.3-1.4v-1.3c0-1,0-2,0.2-3
			c0.1-0.5,0.2-1,0.2-1.5c-0.1-0.9,0.3-1.9,0-2.8c-0.1-0.2,0-0.3,0-0.5c0.1-0.4,0.2-0.9,0.1-1.3c-0.1-0.2,0-0.4,0.1-0.6
			c0.1-0.3,0.1-0.5,0.1-0.8c0-0.1,0.1-0.3,0.2-0.4c0.2-0.2,0.3,0,0.5,0c0.2,0.1,0.4,0,0.4-0.2c0.1-0.6,0.1-1.1,0.1-1.7
			C200.8,60.1,200.8,59.6,200.7,59.2z M192.9,17.9c0.1,0,0.2,0.1,0.2,0.2v0.4c0,0.1,0,0.2,0.1,0.4l-0.1,0.1l-0.1-0.1
			c-0.1-0.3-0.1-0.5-0.2-0.8C192.8,18,192.8,17.9,192.9,17.9z M177.9,24.3c-0.1,0-0.2-0.1-0.2-0.2c0-0.4,0.1-0.8,0.3-1.1
			c0-0.1,0-0.1,0.1-0.1c0.1-0.1,0.2,0,0.2,0.1c0.1,0.3,0.1,0.5,0.1,0.6C178.4,24.1,178.2,24.3,177.9,24.3z M179.2,22.5l-0.1,0.1H179
			c-0.6-0.5-0.7-1.1-0.6-1.8l0.1-0.1c0.1,0,0.2,0,0.2,0c0.2,0.2,0.3,0.4,0.3,0.6c0.1,0.2,0.1,0.3,0.1,0.5
			C179.2,22,179.3,22.2,179.2,22.5z M180.2,26c0-0.1-0.2-0.1-0.2-0.2s-0.1-0.2-0.1-0.3c-0.1-0.1,0-0.2,0.1-0.2s0.2,0,0.3,0.1
			s0.1,0.2,0.1,0.3C180.4,25.8,180.3,25.9,180.2,26z M180.9,24c-0.1,0.2-0.2,0.3-0.4,0.3c-0.1,0-0.2,0-0.3-0.1
			c0-0.1,0.1-0.2,0.2-0.2L180.9,24c-0.2-0.5-0.5-0.9-0.4-1.4c-0.1,0-0.2,0-0.3-0.2l0.1-0.1c0.1-0.1,0.2,0,0.2,0.3
			C181.1,23.1,181.1,23.3,180.9,24z M185.7,46.1c0.1-0.1,0.2-0.2,0.3-0.1c0.2,0.1,0.3,0.3,0.3,0.5c-0.1,0-0.1,0.1-0.1,0.1
			c-0.3,0.1-0.4-0.1-0.5-0.3C185.7,46.2,185.7,46.1,185.7,46.1z M182,28.1l-0.1-0.1v-0.5c0-0.1,0.2-0.1,0.3-0.2
			c0.1,0.1,0.2,0.3,0.1,0.4c0,0.2,0,0.3-0.2,0.4C182.1,28.1,182,28.1,182,28.1z M183,55.8c0,0-0.1,0.1-0.2,0c-0.2,0-0.3-0.1-0.3-0.3
			c0-0.1,0-0.2,0-0.2c0.1-0.1,0.2-0.1,0.3,0s0.2,0.2,0.2,0.3C183.1,55.7,183,55.8,183,55.8z M187.1,74.3c-0.1,0.1-0.2,0.1-0.2-0.1
			v-0.8c-0.3-0.4-0.6-1-0.9-1.4c-0.3-0.8-0.5-1.6-0.8-2.4c-0.1-0.5-0.3-1.1-0.5-1.6c-0.7-1.4-0.9-3-1.1-4.5
			c-0.1-0.8-0.1-1.7-0.1-2.5c0.1-0.8,0-1.7-0.1-2.5c0-0.1-0.1-0.2-0.1-0.3c0-0.3,0-0.5,0.2-0.6c0.1-0.1,0.3,0,0.4,0.1
			c0.1,0.1,0.2,0.1,0.3,0.2c0-0.8-0.2-1.4-0.5-2.1c-0.2-0.5-0.5-1-0.7-1.5c-0.1-0.4-0.1-0.7,0.1-1c0.2-0.2,0.3-0.4,0.1-0.7
			c-0.5-0.5-0.8-1.2-1-1.9c-0.1-0.4-0.3-0.8-0.5-1.2c-0.1-0.3-0.1-0.7-0.1-1c0-0.2,0.2-0.3,0.3-0.3s0.2,0,0.3,0.1
			c0.2,0.2,0.6,0.2,0.9,0.2c1.7-0.2,1.5-0.1,2.3,1.1l0.1,0.1c0-0.5-0.1-0.9,0.2-1.3c0.1-0.1,0.2-0.1,0.3-0.1l0.1,0.1
			c0,0.1,0.1,0.2,0.1,0.3c0.1,0.3,0.1,0.7,0.2,1c0,0.1,0.1,0.2,0.3,0.3c0.4,0.2,0.5,0.3,0.4,0.6c-0.1,0.2-0.2,0.4-0.2,0.6
			c0,0.3-0.1,0.5,0,0.7c0.3,0.7,0.2,1.3,0.2,2c0,0.3,0,0.5-0.1,0.7c-0.3,0.8-0.4,1.7-0.4,2.6c0,0.3-0.2,0.6-0.3,0.9
			c-0.1,0.2-0.3,0.3-0.4,0.3c-0.6-0.2-1.2-0.3-1.7-0.6v1.5c-0.1,0.9-0.1,1.7,0.2,2.6c0.1,0.6,0.2,1.2,0.3,1.8
			c0.1,0.6,0.4,1.1,0.9,1.5c0.3,0.2,0.5,0.5,0.5,0.8c0.2,1.5,0.4,3,0.4,4.6c0,1,0.3,1.9,0.4,2.8C187.1,73.7,187.2,73.9,187.1,74.3
			L187.1,74.3z M186.1,60c0,0.7-0.1,1.4-0.2,2.1l-0.1,0.1c0,0-0.1,0-0.2-0.1c-0.3-0.4-0.3-0.8-0.3-1.3c0-0.4,0.1-0.8,0.5-1.2h0.1
			l0.1,0.1C186,59.8,186.1,59.9,186.1,60z M198.3,73.7c-0.2,1.8-0.4,3.7-0.6,5.5v1.7h-0.5c-0.8,0.2-0.9,0.6-0.7,1.1
			c0.1,0.1,0.1,0.2,0.1,0.3c0.1,0.2-0.1,0.3-0.4,0.3c-0.2-0.1-0.3-0.1-0.4-0.3c-0.1-0.1-0.1-0.2-0.1-0.3c-0.1-0.3-0.2-0.5-0.5-0.6
			c-0.2-0.1-0.4-0.2-0.6-0.3c-0.2-0.1-0.2-0.5,0-0.6c0.6-0.5,1.2-0.8,2-0.6c0.3,0.1,0.4,0,0.5-0.3s0.2-0.5,0.1-0.8
			c-0.1-0.3-0.2-0.6-0.3-0.8c-0.1-0.3-0.1-0.5,0-0.8c0.2-0.3,0.2-0.7,0.1-1c-0.1-0.3,0-0.5,0-0.8c0.1-0.3,0-0.7-0.1-1.1
			c-0.1-0.2-0.2-0.5-0.2-0.8c0-0.4-0.2-0.7-0.3-1.1c-0.1-0.3-0.2-0.6-0.3-0.9c-0.2-0.4-0.2-0.9-0.2-1.3c0-0.8,0-1.7-0.1-2.5v-0.3
			c-0.1-0.6-0.3-1.2-0.4-1.9c0.2-0.7,0.1-1.4,0.1-2c0.3,0.2,0.5,0.4,0.3,0.6c0.1,0.3,0.3,0.4,0.5,0.5c0.1,0,0.1,0,0.2,0l0.1-0.1
			c0-0.5,0-0.9-0.2-1.3c-0.3-0.7-0.4-1.4-0.4-2.1c0-0.3-0.1-0.5-0.1-0.8s0.2-0.4,0.4-0.5c0,0.4,0.2,0.7,0.6,0.9
			c0.2,0.1,0.4,0.1,0.6-0.1c0.1-0.1,0.2-0.3,0.3-0.4c0-0.1,0.1,0,0.1,0c0.1,0.1,0.1,0.2,0.1,0.3c-0.1,2.7-0.1,5.3-0.1,8v0.8
			c0,0.9,0,1.9,0.3,2.8C198.4,72.6,198.4,73.1,198.3,73.7z"/>
		<path class="st0" d="M194.8,20.7c0,0.1,0,0.1,0.1,0.2c0.1,0.4,0.4,0.4,0.8,0.5c0.1,0,0.1,0,0.2-0.1c0,0,0.1,0,0.1,0.1
			c-0.5-0.8-1-1.6-1.4-2.5c-0.3-0.5-0.5-1-1-1.4C194.2,18.6,194.5,19.5,194.8,20.7z"/>
		<path class="st0" d="M197.4,24.7c0.1,0.1,0.1,0.1,0.3,0.1l0,0.1c-0.1,0.1-0.2,0.1-0.2,0L197.4,24.7c-0.5-0.2-0.7-0.5-0.9-0.8
			c-0.7-0.9-1.4-1.9-2.1-2.8c-0.4-0.4-0.6-0.8-0.9-1.2c-0.1-0.2-0.3-0.2-0.3-0.3c0,0.3,0.1,0.7-1,1.4c0.5,0.8,1,1.6,1.5,2.3
			c0.8,1.2,1.7,2.4,2.5,3.7c0.2,0.2,0.2,0.3,0.4,0.5c0.5,0.6,1,1.1,1.2,1.8c0,0.1,0.2,0.2,0.2,0.2c0,0.1,0.1,0.1,0.3,0.1
			c0.1,0.1,0.2-0.1,0.3-0.2c0.2-0.5-0.3-0.9-0.2-1.3c0-0.1,0-0.2,0.1-0.3c0.1,0,0.2,0,0.3,0.1c0.2,0.3,0.4,0.8,0.6,1.2
			c0,0.1,0.2,0.3,0.4,0.2c0.1,0,0.2-0.2,0.3-0.2l0.3-0.1c-0.1-0.3-0.2-0.7-0.4-0.9c-0.3-0.3-0.5-0.8-0.7-1.1
			c-0.7-1.2-1.3-2.5-2.1-3.7c0.1,0.3,0.2,0.6,0.4,0.9C197.4,24.4,197.3,24.5,197.4,24.7z"/>
		<path class="st1" d="M197.2,56.2c-0.1,0.1-0.2,0.2-0.4,0.3l0,0C197,56.3,197.1,56.2,197.2,56.2L197.2,56.2L197.2,56.2z"/>
		<path class="st1" d="M186.5,62.8L186.5,62.8L186.5,62.8z"/>
		<path class="st1" d="M182,46.9c-0.1,0-0.2-0.1-0.3-0.1l-0.1,0.1c0,0.1,0.1,0.2,0.1,0.2c0.1,0,0.2,0,0.2-0.1
			C182,47,182,47,182,46.9L182,46.9z"/>
		<polygon class="st1" points="196.2,55.9 196.1,56 196.2,56 		"/>
		<polygon class="st1" points="186.1,63.7 186.1,63.6 186,63.6 		"/>
		<path class="st0" d="M369.1,79c-0.3-0.2-0.5-0.3-0.8-0.5c-0.4-0.2-0.7-0.5-1-0.8c-0.8,0-1.7,0.1-2.5-0.2c-0.7-0.2-1.3-0.1-2,0
			c-0.7,0.2-1.3,0.2-2,0c-0.5-0.2-1.1-0.1-1.7-0.1c-0.9,0-1.9,0.3-2.8,0.1c-0.2,0-0.3,0-0.5,0.1c-0.7,0.2-1.4,0.2-2.1,0
			c-0.6-0.2-1.2-0.3-1.8-0.2s-1.2,0-1.8-0.1c-0.5-0.1-1-0.1-1.5-0.1c-1.2,0-2.4,0.3-3.7,0c-0.1,0-0.2,0-0.3,0
			c-0.4,0.1-0.8,0.1-1.2,0c-0.8-0.1-1.6-0.1-2.3-0.3c-0.2,0-0.3,0-0.5,0c-0.5,0.1-0.9,0-1.3,0s-0.8-0.1-1.2,0
			c-1.1,0.1-2.2,0.1-3.3,0.2c-0.3,0-0.6,0.1-0.8,0c-0.5-0.1-1-0.1-1.5-0.1c-0.4,0-0.9,0-1.3,0c-1-0.1-1.9,0-2.8,0
			c-0.5,0-1.1,0.2-1.7,0.1s-1.2,0.1-1.8,0c-0.4-0.1-0.8,0-1.2,0c-1.5,0.1-3,0-4.5-0.1c-1-0.1-2-0.2-3,0.1c-0.3,0.1-0.6,0.1-0.8,0
			c-1-0.3-2-0.2-3-0.2c-0.1,0-0.2,0-0.3,0c-0.2,0-0.3-0.2-0.4-0.5l-0.1-0.1l0,0c-0.3,0-0.5,0-0.8,0c-0.2,0-0.3,0.1-0.3,0.3
			c0,0.2-0.1,0.3-0.1,0.5s-0.3,0.2-0.4,0.2c-0.1-0.1-0.2-0.1-0.2-0.2s0-0.2,0-0.3c0-0.3,0-0.4-0.3-0.4c-0.2,0-0.4,0.1-0.6,0.2
			s-0.4,0.1-0.6,0.2l0,0c-0.1,0.1-0.2,0.1-0.4,0l0,0c-0.7,0-1.4-0.1-2.1-0.1c-0.2,0-0.4-0.1-0.6-0.2c-0.2-0.2-0.5-0.3-0.8-0.1
			c-0.6,0.3-1.2,0.5-1.9,0.6c-0.3,0.1-0.6,0.2-0.9,0.4c-0.3,0.1-0.5,0.2-0.8,0.2v0.1l0,0c-0.1-0.4-0.3-0.7-0.8-0.7
			c-0.2,0-0.5-0.1-0.7,0c-0.5,0.1-1.1,0.2-1.6,0c-0.1,0-0.3,0-0.5,0c-0.5,0.1-1,0.2-1.5,0.3c-0.2,0-0.3,0.1-0.5,0.1
			c-0.4,0-0.9,0-1.3-0.1c-1.1-0.2-2.3-0.3-3.5-0.1c-0.3,0.1-0.7,0.1-1,0.1c-0.4,0-0.9,0.1-1.3,0.2c-0.6,0.2-1.2,0.3-1.8,0.1l0,0
			c-0.2,0-0.4-0.1-0.5-0.1c-0.7,0.5-1.5,0.4-2.2,0.1l-0.1-0.1c-0.6-0.2-1.2-0.3-1.8-0.1c-0.2,0.1-0.4,0.1-0.6,0.1
			c-0.5-0.1-0.8,0.2-1.1,0.5l0,0h-0.4l0,0c-0.2-0.2-0.4-0.4-0.7-0.3c-0.7,0.3-1.5,0.3-2.3,0.4c-0.3,0-0.7,0.1-1,0.2
			c-0.1,0.1-0.2,0.1-0.3,0.1c-0.5,0-1.1,0.1-1.7-0.1c-0.4-0.2-0.8-0.2-1.1-0.1c-0.5,0.1-1,0.2-1.5,0.3c-0.3,0.1-0.6,0.1-1,0.1
			c-0.3-0.1-0.7-0.1-1-0.1c-0.2,0-0.4,0-0.6,0.2c-0.3,0.1-0.5,0-0.7-0.2c-0.1-0.1-0.3-0.1-0.5,0c-0.6,0.4-1.3,0.7-2,0.4
			c-0.2-0.1-0.4,0-0.7,0c-0.3,0-0.6,0-0.8,0c-0.2,0-0.3-0.1-0.4-0.3c-0.1-0.2-0.1-0.4,0-0.6c0-0.2-0.1-0.3-0.3-0.3
			c-0.3,0-0.5,0-0.8,0c-0.2,0-0.3,0.2-0.2,0.3c0.1,0.1,0.2,0.2,0.3,0.4c0.1,0.2,0,0.5-0.2,0.5c-0.3,0.1-0.5,0.2-0.8,0.2
			c-1.3-0.1-2.7-0.1-3.9-0.6c-0.2,0.2-0.3,0.4-0.5,0.6c-0.1,0.2-0.2,0.2-0.4,0.2c-0.2,0-0.3-0.1-0.5-0.1c-1.1,0-2.1-0.2-3.2,0
			c-0.4,0.1-0.8,0.1-1.2,0.1c-0.6,0.1-1.2,0.1-1.8-0.1s-1.2-0.1-1.8,0.2c-0.3,0.2-0.5,0.2-0.8,0.1c-0.5-0.1-1.1,0-1.7-0.1
			c-0.5-0.1-1.1,0.1-1.7,0.1c-0.6,0.1-1.2,0.1-1.8,0c-1-0.2-2.1-0.2-3.2-0.2c-1.1,0-2.2,0-3.3,0.3c-0.2,0.1-0.4,0.1-0.7,0.1
			c-1.1,0.1-2.1,0.1-3.2,0.2c-0.4,0-0.8,0-1.2,0.1c-0.1,0-0.3,0.2-0.3,0.3c-0.1,0.3-0.1,0.7,0.1,1c0.2,0.3,0.4,0.5,0.8,0.5
			c1.1,0,2.1-0.1,3.2-0.2c0.4,0,0.9-0.1,1.3-0.3c0.2-0.1,0.5-0.2,0.8-0.2c0.4,0,0.8,0,1.2,0c0.3,0,0.5,0.1,0.8,0
			c0.9-0.2,1.8-0.1,2.7-0.1c0.5,0,1.1,0,1.7-0.1c0.8-0.1,1.5-0.1,2.3-0.1c0.5,0,1.1,0.1,1.6,0.2c0.6,0.1,1.1,0.1,1.7,0
			c0.1,0,0.1,0,0.2,0c0.5,0.2,1.1,0.1,1.7,0.1c0.6,0,1.1,0,1.7,0.1c1.3,0.2,2.7,0.1,4,0c0.9,0,1.9-0.2,2.8-0.2c1,0.1,2-0.2,3,0.2
			c0.1,0.1,0.3,0,0.5,0s0.4,0,0.6,0c0.3,0,0.7,0.1,1,0.1c0.7,0,1.4-0.1,2.2-0.2c0.4-0.1,0.9-0.1,1.3-0.1c0.5,0,1,0,1.5,0.1
			c0.4,0.1,0.8,0.1,1.1-0.1c0.2-0.1,0.4-0.2,0.6-0.3c0.2,0,0.3-0.1,0.5-0.1c1.3,0.2,2.5,0,3.8,0.2c0.2,0,0.5,0,0.7,0
			c1.1-0.2,2.1,0,3.2,0.1c0.5,0.1,1,0.1,1.5,0c0.8-0.1,1.7-0.1,2.5,0c0.3,0,0.6-0.1,0.9-0.3c-0.7,0-1.3-0.2-1.9-0.5
			c-0.3-0.1-0.6-0.2-1,0c-0.3,0.1-0.6,0.1-1,0c-0.3-0.1-0.7-0.1-1-0.1c-0.7,0-1.4,0-2.2,0l0,0l0,0l0,0l0,0c-0.2-0.1-0.5-0.2-0.8-0.2
			c-0.6,0.2-1.2,0.2-1.8,0.1c-0.7-0.1-1.3,0.1-2-0.1c-0.6-0.2-1.2-0.1-1.8,0c-0.5,0.2-1.1,0.2-1.6,0.3c-0.6,0.1-1.2,0-1.8,0
			c-0.9,0-1.9-0.1-2.8,0c-0.5,0.1-1,0-1.5-0.2c-0.2-0.1-0.4-0.1-0.6-0.1l0,0l0,0l0,0c0.5-0.3,1-0.4,1.6-0.4c1,0,1.9,0,2.8,0
			c0.2,0,0.4-0.1,0.6-0.1c0.3-0.1,0.6-0.2,1-0.2c0.3,0,0.5,0,0.8,0c0.6,0,1.2-0.2,1.8,0c0.1,0,0.2,0,0.3,0c0.7-0.1,1.4-0.2,2.1-0.3
			c0.3,0,0.5-0.1,0.8,0c0.8,0.3,1.6,0.4,2.5,0.1c0.2-0.1,0.3-0.1,0.5-0.1c0.6,0,1.1-0.1,1.7-0.2c0.1,0,0.2,0,0.3,0
			c0.5,0.4,1,0.2,1.6,0.1c0.3,0,0.6-0.1,0.8-0.1c0.8,0,1.6,0,2.3-0.1c0.2,0,0.3,0,0.5,0c0.3,0.1,0.5,0.2,0.8,0.3
			c0.4,0.1,0.8,0.2,1.2,0.1c1-0.3,2.1-0.2,3.1-0.6c0.7-0.1,1.4-0.3,2.1-0.1c0.3,0.1,0.5,0,0.8,0c0.5,0,1,0,1.5,0.2
			c0.2,0.1,0.5,0.1,0.7,0.1c0.7-0.2,1.4-0.1,2.1,0c0.3,0.1,0.3-0.1,0.4-0.4c0-0.2,0.3-0.2,0.4-0.1c0.4,0.6,0.9,0.9,1.7,0.7
			c0.1,0,0.3,0.1,0.5,0.1s0.5,0.1,0.7,0c0.6-0.1,1.1-0.1,1.7-0.1s1.1-0.2,1.6,0c0.6-0.2,1.2,0.1,1.8-0.1c0.7-0.2,1.3,0,2-0.2
			c0.3-0.1,0.5-0.1,0.8,0c0.7,0.1,1.3,0,1.9-0.3l0,0l0,0V78v0.1l0,0l0,0l0,0c0,0.2,0,0.3,0.2,0.4c0.6,0.2,1.3,0.2,2,0
			c0.4-0.2,0.8-0.2,1.3-0.1c0.4,0.1,0.8,0.1,1.2,0c0.5-0.2,0.8,0.3,1.3,0.3c0.4,0,0.8,0,1.2,0.2c0.4,0.1,0.8,0.2,1.1,0.2
			c1.3,0,2.7-0.1,4,0c0.3,0,0.7,0,1-0.1c0.8-0.2,1.6,0.1,2.3-0.2c0.5,0,1,0,1.5,0.1c0.7,0.2,1.3-0.1,2,0.1c0.1,0,0.2,0,0.3,0
			c0.5-0.3,1,0,1.5-0.2s1,0.1,1.5,0.1c0.4,0,0.9,0.1,1.3,0.1c1.3,0,2.7,0,4,0c0.3,0,0.5,0.1,0.8,0.2c0.4,0.1,0.8,0.1,1.1,0
			c0.5-0.2,1-0.2,1.5,0c0.3,0.1,0.6,0.2,1,0.1c0.6,0,1.1,0,1.7,0s1.1,0.1,1.7,0c0.3-0.1,0.7,0,1,0.1c0.6,0.2,1.2,0.2,1.8-0.1
			c0.2-0.1,0.5-0.1,0.6,0c0.6,0.2,1.2,0.2,1.8,0.3c0.7,0.2,1.4,0.3,2.1,0.2c0.2,0,0.5,0,0.7,0c2,0.3,4,0.2,6,0.2
			c0.8,0,1.7,0,2.5,0.1c1.2,0.2,2.3,0.2,3.5,0.2c0.8,0,1.7-0.1,2.5,0c0.5,0,1,0,1.5,0C369.3,79.4,369.2,79.2,369.1,79z M260.1,79.1
			c-0.1,0.1-0.2,0.2-0.2,0.2c-0.3,0-0.5-0.1-0.8-0.2V79c0.3-0.1,0.6-0.2,0.9-0.2l0,0C260.1,78.9,260.1,78.9,260.1,79.1L260.1,79.1z"
			/>
		<polygon class="st1" points="299.9,77.3 299.9,77.2 299.8,77.3 299.9,77.4 		"/>
		<path class="st1" d="M159.3,80.2c-1.2-0.1-2.8-0.2-4.4-0.2c-1.5-0.1-3-0.1-4.5-0.1c-0.8,0-1.6,0.1-2.3,0.2c-1,0.2-2,0.4-3,0.5
			c-0.4,0-0.8,0-1.2-0.1c-1.4-0.5-2.9-0.7-4.4-0.9c-0.3-0.1-0.6-0.1-0.9-0.4c-0.2-0.2-0.5-0.3-0.8-0.3c-0.7-0.1-1.3-0.2-2-0.2
			s-1.3,0-2,0c-0.3,0-0.7,0.1-1,0c-0.6-0.2-1.2-0.1-1.8,0c-0.3,0-0.6,0.1-0.8,0.1c-1.5,0-3,0.3-4.4,0.6c-0.3,0.1-0.6,0.1-0.8,0.1
			c-0.7-0.1-1.3,0-2,0.1c-1.1,0.1-2.2,0.1-3.3,0.1c-0.8-0.1-1.7,0-2.5,0c-1,0-2,0.1-3,0.1c-0.3,0-0.6,0-0.8,0c-1.8,0-3.6,0-5.3,0
			c-0.6,0-1.2,0-1.8,0.1c-0.5,0-1,0.1-1.5,0c-0.9,0-1.8-0.1-2.7,0.2c-1.3,0-2.6,0.3-3.8,0.2c-0.2,0-0.4,0-0.7,0.1
			c-1.5,0.2-3.1,0.5-4.6,0.7c-0.3,0.1-0.7,0.1-1,0c-1-0.2-2-0.3-3-0.2c-0.1,0-0.1,0-0.2,0c-0.1-0.1-0.2-0.1-0.3-0.2
			c-0.1-0.2-0.1-0.4,0-0.5c0.6-1,1.5-1.5,2.7-1.3c1,0.1,1.9,0,2.8-0.2c1.1-0.3,2.3-0.3,3.5-0.6c2.4-0.2,4.8-0.5,7.2-0.5
			c0.1,0,0.1-0.1,0.1-0.1c0-0.1-0.1-0.1-0.1-0.1c-0.1-0.2-0.3-0.3-0.4-0.5c-0.1-0.1,0-0.4,0.1-0.4c0.4-0.1,0.8-0.3,1.2-0.6
			c0.2-0.1,0.3-0.4,0.2-0.6c-0.1-0.2-0.1-0.4-0.2-0.6c-0.1-0.3-0.1-0.7,0-1s0.2-0.6,0.3-0.9c0.2-0.5,0.4-0.9,0.3-1.4
			c-0.1-0.3,0-0.6,0.1-0.8c0.2-0.5,0.2-1.1,0.4-1.6c0.1-0.2,0.4-0.3,0.5-0.3c0.5,0.1,1,0.2,1.2,0.8c0.1,0.3,0.3,0.4,0.6,0.5
			c0.5,0.2,1,0.6,1.4,0.9c0.7,0.6,1.2,1.2,1.5,2c0.1,0.2,0.2,0.3,0.3,0.4c0.1,0.1,0.2,0.1,0.3,0c1.2-1.4,1.9-3,2.1-4.8
			c0.1-0.8,0.2-1.7,0.1-2.5c-0.1-0.3,0-0.6,0.1-0.8c0.2-0.9,0.1-1.8,0-2.7c0-0.3-0.1-0.5-0.2-0.8s-0.2-0.5-0.4-0.7
			c-0.7-0.5-1.2-1.2-1.7-1.8c-0.2-0.3-0.3-0.6-0.3-0.9c-0.1-0.7,0-1.3,0.4-1.9c0.1-0.2,0.5-0.3,0.7-0.2c0.4,0.2,0.7,0.5,1,0.9
			c0.1,0.2,0.2,0.4,0.2,0.6c0.1,0.3,0.1,0.7,0.2,1c0,0.1,0.2,0.2,0.3,0.1c0.6-0.3,1.2-0.6,1.8-0.9c0.3-0.2,0.6-0.5,0.9-0.7
			s0.5-0.4,0.9-0.4c0.3,0,0.5-0.2,0.8-0.2s0.6,0,0.8,0.1c0.8,0.4,1.4,0.9,1.5,1.8c0,0,0,0.1,0,0.2c0.1,1.1,0.2,2.2,0.5,3.3
			c0,0.1,0,0.2,0,0.3c0,0.2-0.4,0.5-0.6,0.4c-0.4-0.1-0.7-0.4-0.9-0.7c-0.3-0.7-0.6-1.3-0.5-2.1c0-0.4,0-0.8,0.1-1.2
			c0-0.3-0.2-0.5-0.5-0.5c-0.2,0-0.3,0-0.5,0.1c-0.1,0.1-0.3,0.2-0.4,0.3c-0.1,0.2-0.1,0.3,0,0.5s0.1,0.4-0.1,0.6
			c-0.5,0.5-1.1,1-1.8,1.2c-0.6,0.1-1,0.4-1.3,1c-0.1,0.1-0.1,0.2-0.2,0.3c-0.2,0.2-0.1,0.5-0.1,0.8c0,0,0,0.1,0.1,0.2
			c0.4,0.6,0.5,1.3,0.5,2.1c0,0.7,0,1.4,0.1,2.2c0.1,0.4,0,0.8-0.1,1.2c-0.3,0.8-0.3,1.6-0.3,2.5c0,0.3-0.1,0.7-0.2,0.9
			c-0.4,0.7-0.8,1.4-1.1,2s-0.8,1.4-1.1,2.1c-0.1,0.4-0.4,0.7-0.6,1s-0.6,0.3-0.9,0.1c-0.5-0.4-0.7-0.8-0.7-1.4
			c0.1-0.8,0-1.6-0.3-2.3c-0.3-0.8-0.8-1.4-1.5-1.8c-0.1-0.1-0.2-0.1-0.3-0.2c-0.7-0.2-1.2-0.6-1.5-1.2c-0.1-0.1-0.2-0.2-0.2-0.2
			s-0.1,0-0.2,0S107,69.9,107,70c-0.1,0.3,0,0.6,0,0.8c0.1,0.8,0.1,1.6-0.1,2.3c-0.1,0.2,0,0.3-0.1,0.5c-0.1,0.4,0.1,0.6,0.3,0.9
			c0.3,0.3,0.3,0.4,0.1,0.7c-0.4,0.6-0.7,1.2-1.3,1.5c-0.1,0.1-0.1,0.2-0.2,0.3c-0.1,0.1,0,0.4,0.1,0.4s0.2,0.1,0.3,0.1
			c1.7-0.1,3.4,0,5.2,0c1.8,0,3.6,0,5.3,0c0.3,0,0.6,0.1,0.8,0.1c0.8,0.1,1.5,0.2,2.3,0.2c0.2,0,0.3,0,0.5,0
			c1.2,0.3,2.4,0.2,3.7,0.3c1.1,0.1,2.2,0.1,3.3-0.1c0.2,0,0.5,0,0.7,0c1.1-0.4,2.2-0.2,3.3-0.3c1.1,0,2.1-0.1,3.2-0.2
			c1.1-0.2,2.3-0.3,3.5-0.3c0.4,0,0.9-0.1,1.3-0.1c0.6,0,1.2-0.1,1.8-0.1c0.8,0.1,1.7,0,2.5,0c1.2,0,2.4,0,3.7,0.2
			c0.8,0.1,1.6,0.1,2.3,0.1c1.3,0,2.7,0,4,0c1.6,0,3.2-0.1,4.9,0c1.9,0.1,3.9,0.1,5.9,0.1c0.8,0,1.7,0,2.5-0.1
			c1.3-0.2,2.5-0.3,3.8-0.3c0.3,0,0.7,0,1-0.1c0.6-0.2,1.3-0.3,2-0.2c0.3,0,0.6-0.1,0.8-0.2c0.7-0.3,1.5-0.4,2.3-0.3
			c0.8,0,1.6,0,2.3-0.1c0.3,0,0.7,0,1,0.1c0.7,0.1,1,0.4,1.2,1.2c0,0.1-0.1,0.4-0.2,0.4c-0.1,0-0.2,0.1-0.3,0.1
			c-0.9,0.2-1.8,0.3-2.6,0.3c-1,0-2,0-3,0.1c-0.3,0-0.7,0.1-1,0.2c-0.4,0.1-0.6,0.3-0.6,0.7c0,0.1,0,0.1,0,0.2
			c0,0.3-0.2,0.5-0.5,0.6c-0.2,0-0.4,0-0.7,0.1c-0.4,0.1-0.9,0.2-1.3,0.4c-0.6,0.3-1.3,0.3-2,0.3c-1-0.1-2-0.1-3-0.2
			c-0.7,0-1.4-0.1-2.2-0.1C162.7,80.3,161.2,80.3,159.3,80.2L159.3,80.2z"/>
		<path class="st1" d="M56,29.3c0.3,0.3,0.6,0.5,1,0.6c0.8,0.3,1.7,0.6,2.5,1c0.8,0.3,1.4,1.5,0.9,2.2c-0.5,1-0.8,2.1-1.4,3
			c-0.3,0.4-0.4,0.9-0.4,1.4c-0.1,1.1-0.1,2.1-0.1,3.2c0,0.3,0.1,0.7,0.1,1s0.1,0.5,0.1,0.8c0,0.2-0.1,0.4-0.3,0.5s-0.3,0.1-0.5,0.2
			c-0.3,0.1-0.5,0.3-0.5,0.6c-0.1,0.9-0.5,1.7-0.6,2.6c-0.3,1.7-0.7,3.3-0.8,5c0,0.4-0.1,0.8-0.2,1.2c-0.2,0.7-0.3,1.4-0.3,2.1
			c-0.1,1-0.1,2.1-0.3,3.2L55.1,58c-0.1,0-0.2-0.1-0.3-0.1l-0.1-0.1c-0.2-0.9-0.3-1.9-0.3-2.8c0-0.3,0-0.7,0-1c0-0.6,0-1.2,0.1-1.8
			c0.1-0.5,0.1-1.1,0.1-1.7c0-0.9,0-1.8,0.2-2.7c0.2-0.7,0.2-1.4,0.3-2.2c0.1-0.9,0.3-1.8,0.6-2.6c0.1-0.4,0.2-0.8,0.2-1.1
			c0-1.1-0.1-2.1-0.1-3.2c0-1.3,0-2.6,0.1-3.8c0-0.7,0.3-1.4,0.4-2.1c0-0.2,0.4-0.3,0.6-0.2c0.3,0.3,0.5,0.6,0.8,0.9
			c0.1,0.1,0.3,0.1,0.5,0c0.1-0.1,0.2-0.1,0.3-0.2c0.2-0.4,0.4-0.8,0.6-1.2c0-0.1,0-0.2-0.1-0.3c-0.4-0.2-0.8-0.4-1.2-0.6
			c-1.2-0.5-2.3-1-3.5-1.6c-0.3-0.1-0.6-0.2-0.9-0.3c-0.5-0.2-0.7-0.5-0.7-1s0.1-0.9,0.3-1.3c0.1-0.2,0.2-0.5,0.4-0.8
			c0.1-0.2,0-0.5-0.2-0.6c-0.1-0.1-0.3-0.2-0.5-0.2s-0.3,0-0.5,0c-1.2,0-1.8-0.7-2.3-1.7c-0.2-0.4-0.3-0.9-0.3-1.3
			c0-0.6,0-1.2,0.2-1.8c0.2-0.6,0.5-1,1.1-1.1c0.5-0.1,1-0.1,1.5,0c0.3,0.1,0.7,0,0.9-0.3c0.4-0.4,0.8-0.8,1.2-1.2
			c0.5-0.6,0.7-1.3,0.4-2c-0.1-0.3-0.2-0.5-0.3-0.8c-0.2-0.5-0.5-1-0.6-1.6c-0.1-0.2,0-0.4,0-0.6c0-0.2,0.4-0.3,0.5-0.2
			c0.2,0.1,0.4,0.3,0.5,0.5c0.3,0.5,0.6,0.9,0.9,1.4c0.2,0.3,0.4,0.6,0.7,0.9c0.6,0.6,1.2,1.2,1.8,1.7c0.7,0.5,1.4,0.9,2.1,1.3
			c0.4,0.2,0.8,0.2,1.3,0c0.6-0.3,1.3-0.5,2.1-0.6c0.4-0.1,0.7,0.1,0.8,0.4c0.1,0.2,0.2,0.4,0.3,0.6c0.1,0.3,0,0.6-0.2,0.8
			c-0.3,0.3-0.7,0.6-1,0.8c-0.2,0.2-0.2,0.4-0.1,0.6c0.1,0.1,0.2,0.3,0.3,0.4c0.6,1,0.8,1.9,0.4,3c-0.1,0.1-0.1,0.3-0.1,0.5
			s-0.1,0.4-0.3,0.6c-0.4,0.4-0.8,0.7-1.3,1.1c-0.2,0.2-0.5,0.4-0.7,0.7c-0.4,0.4-0.8,0.7-1.3,1.1c-0.7,0.5-1.4,0.8-2.3,0.8
			C57.4,29.4,56.7,29.4,56,29.3c-0.6-0.4-0.9-0.9-0.8-1.7c0,0,0-0.1,0-0.2c0-0.2-0.2-0.4-0.3-0.3s-0.3,0.2-0.3,0.3
			c-0.1,0.1,0,0.3-0.1,0.5c-0.1,0.6,0,0.8,0.6,1C55.3,29.1,55.7,29.2,56,29.3L56,29.3z M61,20.3c-0.7,0.2-1.4,0.6-2,1
			c-0.1,0.1-0.2,0.1-0.2,0.2c0,0,0,0.1-0.1,0.1c0.1,0,0.2,0.1,0.3,0.1C59.7,21.3,60.5,20.9,61,20.3C60.9,20.4,60.9,20.3,61,20.3
			s0.1-0.1,0.1-0.1C61,20.2,61,20.2,61,20.3L61,20.3z M59.3,19.7c0-0.1,0-0.2-0.1-0.3c-1.2-0.6-2.4-1.5-3.3-2.5c0,0-0.1,0-0.1-0.1
			c-0.1-0.1-0.4,0.1-0.4,0.2c0,0.3,0,0.5,0.1,0.8s0.3,0.6,0.4,0.9c0.1,0.4-0.2,0.7-0.4,1.1c-0.1,0.2-0.2,0.4-0.2,0.6s0,0.4,0.2,0.6
			c0.4,0.5,1,0.6,1.5,0.2c0.8-0.6,1.5-1.2,2.4-1.5C59.3,19.8,59.3,19.7,59.3,19.7L59.3,19.7z M62.8,22.9c-0.1-0.1-0.1-0.2-0.2-0.2
			c-0.2,0-0.3-0.1-0.5,0c-0.7,0.2-1.2,0.5-1.7,1c-0.2,0.2-0.5,0.5-0.7,0.7c-0.7,0.6-1.2,1.5-1.9,2.1c-0.1,0.1-0.2,0.3-0.2,0.4
			c0,0,0,0.1,0,0.2c0.1,0.1,0.2,0.1,0.3,0.1c0.9-0.2,1.6-0.7,2.4-1.2c0.3-0.2,0.6-0.5,0.9-0.7c0.8-0.5,1.3-1.2,1.7-2
			C62.9,23.2,62.8,23,62.8,22.9L62.8,22.9z M50.7,22.3c0,0.4,0.1,0.8,0.3,1.1c0.1,0.1,0.5,0.1,0.6,0c0-0.1,0.1-0.2,0.1-0.3
			c0-0.6,0.1-1.2,0.1-1.8c0-0.1-0.1-0.2-0.2-0.2c-0.1,0-0.2,0-0.3,0C51,21.4,50.6,21.7,50.7,22.3L50.7,22.3z M54.8,22.2
			C54.8,22.2,54.7,22.3,54.8,22.2c-0.2,0.3-0.1,0.5,0,0.5h0.1c0-0.1,0.1-0.2,0.1-0.3C55,22.3,54.9,22.3,54.8,22.2z"/>
		<path class="st1" d="M188.2,6.6c-0.2-0.2-0.5-0.4-0.8-0.6c-0.2-0.2-0.5-0.3-0.8-0.2C186.4,5.9,186.2,6,186,6
			c-0.1,0-0.3-0.1-0.3-0.3c0-0.3,0-0.6,0.3-0.7c0.4-0.2,0.5-0.5,0.6-0.9c0-0.2,0.2-0.3,0.4-0.4c0.2-0.1,0.4-0.1,0.5-0.2
			c0.2-0.2,0.4-0.4,0.4-0.7s0-0.5-0.1-0.7c-0.1-0.3-0.3-0.6-0.4-0.9c-0.3-0.5-0.8-0.8-1.4-0.6c-0.6,0.2-1.2,0.2-1.8,0.1
			c-0.3,0-0.5,0.1-0.6,0.3s-0.2,0.3-0.3,0.4c-0.1,0-0.3,0-0.3-0.1c-0.1-0.3-0.2-0.6-0.4-0.9c-0.2-0.4-0.7-0.4-1-0.2
			c-0.1,0.1-0.2,0.1-0.3,0.2c-0.6,0.5-1.3,1-2.1,1.3c-0.1,0-0.3,0.1-0.4,0.2c-0.2,0.1-0.4,0.2-0.6,0.2c-0.8,0.2-1.7,0.5-2.5,0.2
			c-0.1,0-0.1,0-0.2,0c-0.6,0.1-0.9,0.6-0.6,1.1c0.1,0.3,0.3,0.5,0.6,0.5h0.5c0.2,0,0.3,0.1,0.5,0.1c0.1,0,0.2,0.1,0.2,0.2
			c-0.1,0.1-0.1,0.2-0.1,0.2c-0.4,0.3-0.8,0.5-1.1,0.8c-0.3,0.4-0.6,0.7-1,1.1c-0.3,0.3-0.5,0.7-0.3,1.2c0,0.1,0.1,0.2,0.1,0.3
			c0.1,0.2,0,0.3-0.2,0.4c-0.3,0.2-0.6,0.3-0.9,0.4c-0.3,0.1-0.5,0.4-0.6,0.7v0.1c0,0,0,0.1,0.1,0.1c0.7,0.1,1.3-0.3,2-0.2
			c0.2,0,0.3,0,0.3,0.1c0.2,0,0.2,0.1,0.2,0.2l-0.1,0.1c-0.8,0.3-1.7,0.8-2.6,1c-0.7,0.1-1.3,0.5-2,0.7c-0.1,0.1-0.2,0.4-0.2,0.6
			c0,0.2,0.2,0.5,0.4,0.5c0.5,0.1,1,0.1,1.5,0c0.3-0.1,0.7-0.1,1-0.1c0.4,0,0.7,0,1-0.1c0.6-0.2,1.2-0.3,1.8-0.4
			c0.4-0.1,0.7,0,0.8,0.4c0.2,0.4,0.6,0.7,1,0.8c0.1,0.1,0.2,0.1,0.3,0.1c1.7,0.1,1.7,0.5,3.6-0.4c0.1,0,0.2-0.1,0.3-0.1
			c0.7-0.3,1.5-0.6,2.3-0.9c0.5-0.2,0.7-0.5,0.8-1v-0.5c0-0.3,0.1-0.5,0.4-0.6c0.8-0.2,1.4-0.9,2.1-1.3c0.3-0.1,0.5-0.4,0.7-0.7
			C188.6,7.4,188.5,6.8,188.2,6.6z M183.8,7c-0.3,0.9-1,1.7-1.7,2.4c-0.4,0.4-0.7,0.7-1.1,1.1c-0.2,0.2-0.4,0.3-0.6,0.5
			c-0.1,0.1-0.1,0.1-0.2,0.2c-0.1,0.5-0.6,0.8-1.1,0.7s-0.9-0.5-0.9-1v-0.1c-0.3-0.4-0.5-0.9-0.6-1.5s-0.2-1.3-0.1-1.9
			c0.2-0.8,0.8-1.5,1.5-1.9c0.4-0.2,0.9-0.3,1.4-0.3c0.2,0,0.5,0.1,0.7,0.1c0.1,0,0.1,0,0.2,0c0.2-0.1,0.3-0.2,0.5-0.2
			c0.1,0,0.1-0.1,0.2-0.1l0,0c0.1-0.1,0.2-0.1,0.3-0.1c0.5-0.1,1,0.1,1.2,0.5C183.9,5.9,184,6.5,183.8,7z M185.3,2.4
			c0-0.1-0.1-0.2-0.2-0.2c0-0.1,0-0.2,0.1-0.3c0.4-0.3,0.9-0.5,1.4-0.3c0.1,0,0.1,0.1,0.2,0.2l-0.1,0.1c-0.1,0.1-0.2,0.2-0.3,0.2
			C186,2.2,185.7,2.3,185.3,2.4z"/>
		<path class="st1" d="M176,10.9v-0.1c-0.1-0.1-0.5,0.1-0.5,0.2l0.1,0.1C175.8,11.1,175.9,11.1,176,10.9L176,10.9z"/>
		<path class="st1" d="M137.9,60.1c-0.8-0.5-1.6-0.7-2.5-1c-0.6-0.3-1.1-0.3-1.6,0.4c-0.3,0.4-0.8,0.4-1.2,0.2
			c-0.1-0.1-0.3-0.2-0.4-0.3c-0.2-0.2-0.3-0.1-0.4,0.2c0,0.1-0.1,0.2-0.1,0.3c-0.1,0.8-0.4,1.5-0.5,2.3c-0.1,0.2,0.1,0.4,0.2,0.6
			c0.2,0.2,0.5,0.3,0.7,0.5c0.2,0.1,0.3,0.3,0.4,0.5c0.1,0.2,0.1,0.6-0.1,0.8c-0.2,0.2-0.4,0.4-0.6,0.6c-0.3,0.2-0.7,0.4-1,0.6
			c-0.6,0.4-1.1,0.8-1.5,1.3c-1.1,1.1-2.1,2.1-2.9,3.4c-0.1,0.1-0.2,0.1-0.3,0.1c-0.1,0.1-0.2-0.2,0-0.4c0-0.1,0-0.1,0.1-0.2
			c0.7-1.3,1.4-2.6,2.1-3.8c0.2-0.4,0.6-0.7,0.8-1c0.2-0.2,0.1-0.4-0.2-0.5c-0.7-0.1-1.2-0.5-1.8-0.9c-0.2-0.1-0.3-0.3-0.4-0.5
			c-0.3-0.7-0.3-1.4,0.1-2.1c0.2-0.3,0.4-0.7,0.5-1c0-0.1-0.1-0.2-0.1-0.3c-0.3-0.1-0.7-0.2-1-0.2c-0.6-0.1-1-0.5-1.4-0.9
			c-0.1-0.1-0.2-0.4-0.2-0.6c0-0.5,0.1-1,0.6-1.3c0.6-0.3,1.3-0.7,1.9-1c0.1,0,0.2-0.1,0.3-0.1c0.5,0,1-0.2,1.4-0.4
			c1.1-0.5,2.2-0.8,3.4-0.8c0.6,0,1.1,0,1.7,0c0.4,0,0.8,0.1,1.1,0.2c0.6,0.2,1,0.5,1.4,0.9c0.3,0.5,0.7,0.8,1.3,0.9
			c0.3,0,0.4,0.3,0.5,0.6l0,0c-0.2,0-0.4,0-0.7,0s-0.6,0-0.8,0.3c-0.3,0.4-0.6,0.6-0.9,0.9c-0.1,0.1-0.1,0.4,0,0.4
			c0.1,0.1,0.3,0.2,0.4,0.3C137,59.2,137.5,59.6,137.9,60.1L137.9,60.1L137.9,60.1z M132.9,56.8c0.7,0,0.8,0,1.4-0.4l0.1-0.1
			l-0.1-0.1c-0.5,0-1,0.1-1.4,0.3l-0.1,0.1C132.8,56.7,132.9,56.7,132.9,56.8L132.9,56.8z"/>
		<path class="st1" d="M85.2,58.1c0.2-0.8,0.1-1.8,0.3-2.7c0.2-1.2,0.5-2.4,0.6-3.6c0-0.1-0.1-0.2-0.2-0.2s-0.2,0-0.3,0.1
			c-0.1,0.1-0.1,0.2-0.2,0.3s-0.1,0.2-0.2,0.3s-0.2,0.2-0.3,0.2s-0.2-0.1-0.2-0.2c-0.1-0.5-0.2-1-0.6-1.4c-0.4-0.5-0.5-1.1-0.4-1.7
			c0-0.1,0-0.1,0-0.2c0.3-1,0-2-0.3-2.9c-0.2-0.6-0.5-1.2-0.7-1.9c-0.1-0.3-0.1-0.7,0-1c0.1-0.2,0.4-0.3,0.5-0.2
			c0.3,0.2,0.7,0.5,0.9,0.8c0.4,0.5,1,0.7,1.5,0.9c0.1,0,0.2,0,0.3,0c0.3-0.2,0.6-0.5,0.9-0.7c0.4-0.3,0.7-0.7,1.1-1
			c0.1-0.1,0.3-0.2,0.4-0.2c0.2-0.1,0.5,0,0.6,0.1s0.2,0.3,0.3,0.4c0.1,0.3,0.3,0.6,0.6,0.8c0.6,0.6,1.1,1.2,1.5,2
			c0.2,0.5,0.8,0.6,1.3,0.3c0.1-0.1,0.3-0.2,0.4-0.2c0.2-0.1,0.5,0,0.6,0.2c0.3,0.3,0.4,0.7,0.3,1.1c-0.1,0.3-0.2,0.6-0.4,0.9
			c-0.4,0.6-0.8,1.2-1.2,1.8c-0.3,0.5-0.6,0.9-1,1.3c-0.3,0.4-0.7,0.5-1.2,0.2c-0.2-0.1-0.3-0.2-0.4-0.3s-0.2-0.1-0.3,0
			c-0.2,0.2-0.5,0.3-0.8,0.3c-0.6,0-0.9,0.2-1,0.8c-0.1,0.3-0.1,0.7-0.2,1c-0.1,0.2-0.1,0.5-0.2,0.6c-0.6,0.9-0.6,1.9-0.8,2.8
			c-0.1,0.7-0.3,1.4-0.8,2L85.5,59c-0.1,0-0.2-0.1-0.2-0.2C85.2,58.5,85.2,58.3,85.2,58.1L85.2,58.1z"/>
		<path class="st1" d="M92.4,54.4c0.3,0.1,0.7,0,0.9-0.2c0.6-0.5,1.2-1.1,1.9-1.7c0.5-0.5,1.1-1,1.6-1.5c0.2-0.2,0.5-0.2,0.8,0
			c0.6,0.3,0.9,0.8,0.9,1.5c0,0.4,0.2,0.8,0.5,1c0.1,0,0.1,0.1,0.1,0.1c0.5,0.4,0.8,0.9,1,1.5c0.1,0.4,0.3,0.7,0.4,1.1
			c0.1,0.3,0.2,0.6,0.4,0.9c0.3,0.3,0.3,0.7,0,1.1c-0.3,0.3-0.5,0.7-0.6,1.2c-0.5,1.3-1.4,2.4-2.4,3.4c-0.3,0.3-0.6,0.5-1,0.7
			c-0.1,0.1-0.3,0.1-0.5,0.1c-0.4-0.1-0.9-0.2-1.2-0.4c-0.3-0.2-0.5-0.2-0.7,0s-0.3,0.1-0.4,0c-0.2-0.2-0.3-0.5-0.5-0.7
			c-0.7-0.7-0.9-1.5-0.9-2.4c0-0.5,0.1-1,0.1-1.5c0-0.3,0-0.7,0-1s-0.1-0.7-0.3-0.9c-0.1-0.1-0.2-0.2-0.4-0.2
			c-0.3-0.1-0.7,0.1-1,0.1s-0.7-0.3-0.7-0.6c0,0,0-0.1,0-0.2c0.4-1.5,1.2-2.6,2.4-3.5c0.1,0,0.2,0,0.3,0c0,0,0.1,0.1,0,0.2
			c0,0.1,0,0.2-0.1,0.3c-0.1,0.4-0.3,0.8-0.4,1.3C92.5,54,92.4,54.2,92.4,54.4L92.4,54.4L92.4,54.4L92.4,54.4z M96.1,53.4
			c0.1-0.1,0.1-0.2,0-0.2c0,0-0.1,0-0.2,0c-0.6,0.5-1.2,1.1-1.9,1.6c-0.1,0.1-0.1,0.3,0,0.4c0.1,0.1,0.3,0.1,0.5,0
			c0.1-0.1,0.2-0.1,0.3-0.2C95.3,54.6,95.7,54.1,96.1,53.4L96.1,53.4z M96,58.2L96,58.2c-0.3-0.1-0.5-0.1-0.6,0.1c0,0.1,0,0.2,0,0.3
			h0.1C95.7,58.6,95.9,58.4,96,58.2L96,58.2L96,58.2z M98.7,55.6c0-0.1-0.1-0.2-0.2-0.4c-0.1-0.1-0.2-0.1-0.3-0.2
			c-0.1,0.1-0.1,0.2-0.1,0.3c0,0.2,0,0.3,0,0.5c0,0.1,0.2,0.2,0.2,0.2C98.6,56,98.7,55.9,98.7,55.6L98.7,55.6z"/>
		<path class="st1" d="M73.2,58c0.2-1-0.2-1.5-0.6-2c-0.1-0.1-0.2-0.1-0.3-0.1c-0.3,0-0.6,0-0.8,0.1c-0.9,0.2-1.8,0.2-2.7,0.2
			c-0.5,0-0.8-0.4-0.8-0.9c0-0.6,0.3-1.1,0.6-1.5c0.1-0.2,0.3-0.3,0.5-0.4c0.2-0.1,0.5-0.2,0.8-0.3c0.1-0.1,0.2-0.3,0.2-0.4
			c-0.1-0.4-0.2-0.9-0.2-1.3c0-0.9,0.7-1.5,1.4-1.5c0.6,0,1.1,0,1.6,0.3s0.9,0.7,1.1,1.2c0.2,0.4,0.2,0.4,0.6,0.3
			c0.5-0.1,0.9,0,1.2,0.3c0.3,0.2,0.5,0.4,0.8,0.6c0.1,0.1,0.2,0,0.3,0c0.3-0.3,0.7-0.6,1-0.9c0.3-0.3,0.7-0.2,1,0.1
			c0.2,0.2,0.3,0.5,0.1,0.8c-0.2,0.3-0.4,0.6-0.7,1c-0.1,0.1-0.1,0.2,0.1,0.3c0.2,0.2,0.4,0.4,0.6,0.6c0.2,0.3,0.3,0.6,0.2,0.9
			c-0.1,0.2-0.1,0.3-0.2,0.5c-0.5,0.8-1.1,1.5-1.8,2.2c-0.4,0.4-0.8,0.7-1.4,0.9c-0.5,0.2-0.9,0.5-1.3,0.7c-0.3,0.2-0.6,0.3-0.5,0.7
			c0,0.2-0.1,0.4-0.1,0.7c-0.1,0.4-0.2,0.8-0.6,1c-0.5,0.3-0.8,0.8-1,1.3s-0.5,0.9-0.7,1.3c-0.1,0.2-0.2,0.4-0.2,0.6
			c-0.1,0.7-0.5,1.4-0.7,2c-0.5,1.2-1,2.5-1,3.8c-0.4,1.2-0.2,2.4-0.3,3.6c0,0.4,0,0.9-0.2,1.3c-0.1,0.1-0.3,0.2-0.4,0.2
			c-0.2,0-0.3-0.2-0.4-0.3c-0.1-0.2-0.1-0.3-0.1-0.5c0.2-0.7,0.2-1.3,0.2-2c-0.1-0.8,0.1-1.7,0.3-2.5c0.3-1,0.7-2,0.9-3
			c0-0.2,0.2-0.4,0.3-0.6c0.6-1.2,1-2.3,1.3-3.6c0.2-0.9,0.5-1.7,1.2-2.3c0.3-0.2,0.4-0.5,0.5-0.8s0.1-0.4-0.2-0.5
			c-0.1,0-0.2,0-0.3-0.1c-0.9-0.2-1.3-0.7-1.4-1.6c0-0.2,0.1-0.4,0.2-0.4s0.2,0,0.3,0c0.4,0.1,0.8,0.5,1.2,0.5c0.1,0,0.2,0,0.3-0.1
			C73.2,58.1,73.2,57.8,73.2,58L73.2,58z M73.2,51.4c-0.1-0.1-0.1-0.3-0.2-0.4c-0.2-0.2-0.3-0.2-0.5-0.4c-0.3-0.2-0.5-0.1-0.8,0.1
			c-0.3,0.2-0.5,0.5-0.5,0.8c-0.1,0.5,0,0.9,0.3,1.3c0.2,0.3,0.6,0.3,0.9,0.2c0.5-0.3,0.8-0.8,0.9-1.3
			C73.3,51.6,73.2,51.5,73.2,51.4L73.2,51.4z M76.1,56.6c0.1,0,0.1,0,0.2,0c0.4-0.4,0.9-0.8,1.3-1.2c0.1-0.1,0.1-0.2,0.1-0.3
			S77.5,55,77.4,55c-0.6,0.3-1.1,0.7-1.5,1.2C75.9,56.2,76,56.4,76.1,56.6C76,56.6,76,56.6,76.1,56.6L76.1,56.6z M73.2,53.8
			c0,0,0-0.1,0-0.2l-0.1-0.1c-0.1,0-0.3,0.1-0.3,0.3c0,0.1,0.1,0.2,0.1,0.3H73C73.1,54.1,73.2,54,73.2,53.8L73.2,53.8z"/>
		<path class="st1" d="M107.8,62.8c0-0.6,0-1.3,0.2-2c0.1-0.4,0.1-0.8,0.1-1.2c0-0.9,0.2-1.8,0.5-2.6c0.4-1.3,0.6-2.6,0.8-3.9
			c0.1-0.3,0-0.5-0.1-0.8c-0.2-0.3-0.3-0.7-0.6-1c-0.3-0.4-0.2-0.8,0-1.3c0.2-0.4,0.6-0.7,0.7-1.1c-0.2-0.4-0.5-0.7-0.7-1.1
			c0,0-0.1-0.1-0.1-0.2c-0.7-1.4-0.7-1.4-2.2-1.9c-0.4-0.2-0.8-0.3-1.2-0.5c-0.4-0.2-0.5-0.6-0.5-1c0.1-0.5,0.3-0.9,0.9-1.1
			c0.2-0.1,0.4-0.2,0.6-0.2c0.6,0,0.9-0.2,1.2-0.8c0.1-0.2,0.3-0.2,0.4-0.1c0.4,0.4,0.8,0.6,1.3,0.6c0.4,0.1,0.7,0.3,0.9,0.6
			c0.1,0.2,0.3,0.4,0.4,0.5s0.3,0.2,0.5,0.1c0.7-0.2,1.3-0.4,1.9-0.7c0.2-0.1,0.6,0,0.7,0.2s0.2,0.4,0.3,0.6c0.1,0.3,0.2,0.6,0.3,1
			c0.1,0.2,0.2,0.3,0.3,0.3c0.2,0,0.3,0.1,0.5,0.2c0.5,0.3,0.6,0.8,0.6,1.3c0,0.1-0.1,0.2-0.1,0.3c-0.2,0.2-0.3,0.3-0.5,0.5
			c-0.7,0.5-1.3,1-2,1.5c-0.9,0.6-1.5,1.5-2,2.4c-0.1,0.1,0.1,0.4,0.2,0.4c0.2,0,0.4,0.1,0.7,0.1c0.9-0.2,1.8,0,2.7,0.2
			c0.1,0,0.2,0.1,0.2,0.2c0,0.1-0.1,0.2-0.1,0.3c-0.3,0.2-0.7,0.3-1.1,0.4c-0.5,0.2-0.9,0.5-1.4,0.5c-0.4,0-0.9,0-1.3,0
			c-0.1,0-0.3,0.2-0.3,0.3c-0.1,0.9-0.4,1.7-0.5,2.6c-0.1,0.9-0.4,1.7-0.6,2.6c-0.3,1.4-0.5,2.7-0.8,4.1c0,0.2-0.1,0.4-0.2,0.6
			c0,0.1-0.1,0.2-0.2,0.2s-0.2,0-0.2-0.2C107.8,63.5,107.8,63.1,107.8,62.8L107.8,62.8z M109.6,45c0-0.2-0.2-0.4-0.4-0.5
			c-0.1-0.1-0.2,0-0.3,0.1c-0.1,0.3,0.1,0.5,0.4,0.5C109.5,45.2,109.6,45.1,109.6,45z M113.2,44.9C113.2,44.9,113.1,44.9,113.2,44.9
			c-0.2,0.2-0.2,0.4,0,0.5c0,0,0.1,0,0.2,0c0.1-0.1,0.2-0.3,0.1-0.4C113.3,44.9,113.3,44.9,113.2,44.9L113.2,44.9z"/>
		<path class="st1" d="M35,76.5c0.2,0,0.5,0,0.7,0c1.5,0.1,3-0.1,4.5-0.2c1.8-0.2,3.5-0.3,5.3-0.5c0.5-0.1,1.1-0.1,1.7-0.1
			c1,0,2,0,3-0.1c1.8-0.2,3.6-0.1,5.3,0c0.5,0,0.9,0.1,1.3,0.1c0.8,0,0.9-0.2,0.6-0.8c-0.2-0.5-0.4-1-0.7-1.5
			c-0.2-0.6-0.5-1.1-1-1.6c-0.3-0.3-0.5-0.6-0.6-1c-0.4-1.4-0.8-2.8-0.7-4.3c0-0.2,0-0.3,0.1-0.5c0-0.1,0.1-0.2,0.2-0.2s0.2,0,0.3,0
			s0.2,0.1,0.2,0.2c0.4,0.7,0.9,1.3,1.3,2c0.2,0.3,0.2,0.6,0.3,0.9c0,0.9,0.3,1.8,0.5,2.6c0.2,0.9,0.5,1.8,0.5,2.8
			c0,0.2,0.1,0.4,0.1,0.7c0.2,0.5,0.4,0.8,1,0.8s1.1,0,1.7-0.1c0.4,0,0.7,0.1,0.9,0.4c0.3,0.5,0.7,0.7,1.3,0.6c0.1,0,0.2,0,0.3,0.1
			c0.3,0.1,0.7,0.5,0.7,0.9c0,0.1-0.1,0.3-0.2,0.4c-0.5,0.2-1,0.3-1.4,0.4c-0.3,0.1-0.7,0.1-0.9-0.2c-0.2-0.3-0.5-0.4-0.9-0.5
			c-1.2-0.2-2.4-0.3-3.7-0.1c-0.2,0.1-0.5,0.1-0.7,0c-0.5-0.1-1-0.2-1.5-0.1c-0.1,0-0.2,0-0.3,0c-0.7-0.4-1.5-0.2-2.3-0.3
			c-0.2,0-0.4,0.1-0.7,0.1c-0.8,0.1-1.5,0.2-2.3,0c-0.4-0.1-0.8-0.1-1.2,0c-0.9,0.2-1.9,0.3-2.8,0c-0.2-0.1-0.4-0.1-0.7,0
			c-0.4,0.1-0.8,0.2-1.2,0.2c-1.1,0-2.1,0-3.2,0c-0.5,0-1,0.1-1.5,0.1c-1.7,0-3.5-0.1-5.2-0.2c-0.6,0-1.2-0.2-1.8-0.4
			c-0.1,0-0.1-0.2-0.1-0.3c0-0.1,0.1-0.1,0.1-0.1c0.1,0,0.2-0.1,0.3-0.1C33,76.7,34,76.6,35,76.5L35,76.5z"/>
		<path class="st1" d="M79.9,38.5c-0.4,0-0.9,0-1.3-0.1c-0.8-0.1-1.4-0.6-1.8-1.3c-0.1-0.2-0.1-0.5-0.2-0.8c0-0.1-0.2-0.2-0.2-0.2
			c-0.4-0.1-0.8,0-0.9,0.4c-0.1,0.2-0.3,0.2-0.4,0c-0.5-0.5-1-0.8-1.7-1c-0.6-0.2-1.1-0.5-1.6-0.9c-0.2-0.1-0.3-0.3-0.4-0.5
			c-0.1-0.4-0.2-0.9-0.1-1.3c0.1-0.6,0.4-1.2,1.1-1.4c0.4-0.1,0.7-0.3,1-0.6c0.5-0.5,1.2-0.6,1.8-1c1.2-0.4,2.4,0.3,2.7,1.6
			c0.1,0.3,0.1,0.5,0.1,0.8c0,0.2,0.3,0.4,0.5,0.4c0.4,0,0.8,0,1.2-0.1c0.5-0.1,1-0.2,1.5-0.1c0.7,0.1,1.3,0.1,1.9,0.5
			c0.2,0.1,0.4,0.2,0.6,0.2c0.8,0.2,1.4,0.7,1.8,1.3c0.3,0.4,0.6,0.8,0.6,1.3c0.1,0.6-0.1,1.1-0.6,1.5c-0.7,0.5-1.4,0.9-2.3,1
			c-0.1,0-0.1,0-0.2,0C81.9,38.4,80.9,38.6,79.9,38.5L79.9,38.5z M78.9,37.3c0.2,0,0.7-0.1,1.1-0.2c1.1-0.3,2.2-0.6,3.3-0.9
			c0.2-0.1,0.5-0.3,0.7-0.4c0.1-0.1,0.2-0.3,0.1-0.4c-0.1-0.1-0.1-0.2-0.2-0.2c-0.4-0.1-0.8-0.1-1.2,0c-0.5,0.1-1.1,0.3-1.6,0.3
			c-1,0-1.9,0.5-2.8,1c-0.1,0-0.2,0.2-0.2,0.2C78,36.8,78,37.1,78,37.2c0.1,0.1,0.2,0.1,0.2,0.2C78.5,37.3,78.6,37.3,78.9,37.3
			L78.9,37.3z M73.7,33.2c0.8-0.1,1.6-0.2,2.4-0.3c0.2,0,0.3-0.1,0.4-0.2c0.3-0.3,0.4-0.6,0.5-1c0.1-0.5-0.4-1-0.9-0.9
			c-1,0.2-1.9,0.6-2.6,1.4c-0.2,0.2-0.2,0.4-0.3,0.6C73,32.9,73.3,33.2,73.7,33.2C73.6,33.2,73.7,33.2,73.7,33.2z M81.1,33.6
			c-0.3,0-0.7,0.1-1,0.1L80,33.8l0.1,0.1c0.6,0.1,1.3,0.2,1.9,0.1c0.1,0,0.1,0,0.1-0.1c0.1-0.1,0-0.2-0.1-0.2
			C81.7,33.6,81.4,33.6,81.1,33.6z"/>
		<path class="st1" d="M235.4,82.7c-0.5-0.1-1.2-0.1-1.9-0.2c-0.6-0.1-1.2-0.2-1.8,0c-0.5,0.1-1-0.1-1.5,0c-1.9,0.2-3.8,0.2-5.7,0.1
			c-0.4,0-0.8,0.1-1.2,0.1c-1.1,0.1-2.1,0.1-3.1-0.2c-0.1,0-0.2,0-0.3-0.1c-0.6-0.5-1.2-0.4-1.9-0.4c-0.5,0-1,0-1.5,0c-1,0-2,0-3,0
			c-0.7,0-1.3,0-2,0s-1.4-0.1-2.2,0.1c-0.2,0-0.4,0.1-0.7,0.1c-1.6,0-3.2,0.2-4.8,0.3c-0.3,0-0.7,0.1-1,0c-1.2,0-1.2-0.2-1.5-1.3
			c-0.1-0.3,0.2-0.7,0.5-0.8c0.2,0,0.4,0,0.7-0.1c0.4,0,0.6-0.2,0.7-0.6c0-0.1,0.1-0.2,0.1-0.3c0.1-0.1,0.3-0.2,0.4-0.2
			c0.7,0.1,1.3,0.1,2,0.3c0.5,0.1,1,0.2,1.5,0.3c0.2,0,0.5,0,0.7,0.1c1.3,0.4,2.6,0.4,3.9,0.6c1.3,0.2,2.6,0.3,4,0.5
			c0.6,0.1,1.2,0.2,1.8,0.3c0.3,0.1,0.7,0.1,1,0.2c0.3,0,0.6,0,0.8-0.2s0.5-0.2,0.8-0.2c0.8,0.2,1.5,0.2,2.3,0.3
			c0.6,0.1,1.1,0.2,1.6,0.3c0.6,0.1,1.1,0.2,1.7,0.1c0.4,0,0.8-0.1,1.2-0.1c0.5,0.1,1,0,1.5-0.2s1-0.2,1.5,0.1c0.6,0,1.2,0.1,1.8,0
			c0.4,0,0.9,0,1.3,0c0.7,0,1.3,0.1,2-0.1c0.2-0.1,0.3-0.1,0.5,0c0.8,0.2,1.5,0,2.3,0c1-0.1,2,0,3,0.3c0.1,0,0.1,0.2,0.2,0.2
			l-0.1,0.1c-0.4,0.2-0.8,0.1-1.1,0.1c-0.4,0-0.8,0.1-1.1,0.3c-0.2,0.1-0.4,0.2-0.6,0.2C237.2,82.5,236.5,82.6,235.4,82.7
			L235.4,82.7z"/>
		<path class="st1" d="M156.7,61.8c-0.2,0-0.3,0-0.5,0.1c-0.1,0-0.1,0.2-0.1,0.3s0,0.2,0.1,0.3s0.3,0.2,0.4,0.2
			c0.4,0.2,0.8,0.3,1.2,0.5c0.1,0,0.2,0.2,0.1,0.3c-0.1,0.1-0.2,0.2-0.3,0.2c-0.6-0.1-1.1,0.1-1.6,0.2c-0.4,0.1-0.6,0.4-0.6,0.7
			c-0.1,0.6-0.1,1.2-0.2,1.8c0,0.8,0.1,1.6,0.1,2.3c0,0.6,0.1,1.2,0.2,1.8c0.2,0.9,0.2,1.8,0.3,2.7c0,0.3,0,0.7-0.2,1
			c-0.1,0.2-0.5,0.3-0.7,0.2c-0.3-0.2-0.5-0.5-0.6-0.8c-0.2-0.7-0.4-1.4-0.4-2.1c0-0.3,0-0.7-0.1-1c-0.1-0.2,0-0.3,0.2-0.4
			s0.2-0.2,0.2-0.4c-0.1-1.2,0-2.3,0.1-3.5c0-0.5,0.2-1,0.2-1.5c0-0.2-0.1-0.6-0.4-0.7c-0.5-0.3-1-0.5-1.6-0.6c-0.3,0-0.7-0.1-1-0.2
			c-0.1,0-0.2,0-0.3-0.1c-0.6-0.5-1.2-0.8-1.7-1.4c-0.2-0.3-0.4-0.7-0.7-1c-0.4-0.5-0.5-1.1-0.6-1.7c-0.1-0.7,0.3-1.4,1-1.6
			c0.2-0.1,0.5-0.1,0.6,0c0.4,0.3,0.9,0.7,1.3,1c0.3,0.3,0.6,0.3,0.9,0.2c0.3-0.1,0.5-0.2,0.8-0.3c0.7-0.2,1.2-0.6,1.3-1.3
			c0,0,0.1-0.1,0.1-0.2c0.2-0.3,0.7-0.3,0.9,0c0.2,0.4,0.4,0.9,0.7,1.3c0.2,0.4,0.5,0.7,0.8,1.1c0.1,0.2,0.1,0.4,0.1,0.6
			c-0.1,0.1-0.1,0.2-0.1,0.3c-0.3,0.4-0.2,0.8-0.1,1.3C156.7,61.5,156.7,61.7,156.7,61.8L156.7,61.8L156.7,61.8z M152.3,62.4
			c0.1,0,0.3,0,0.4-0.1c0.2-0.1,0.2-0.4,0.1-0.6c-0.1-0.1-0.2-0.1-0.3-0.1c-0.2,0.1-0.5,0.2-0.7,0.3l-0.1,0.1c0,0.1,0.1,0.2,0.2,0.2
			S152.1,62.4,152.3,62.4L152.3,62.4z"/>
		<path class="st1" d="M162,68.4c0.1-0.5-0.3-0.9-0.4-1.4c0-0.1,0-0.2,0.1-0.3c0,0,0.2,0,0.3,0c0.2,0.2,0.3,0.5,0.6,0.6
			c0.1,0.1,0.4,0,0.4-0.1s0-0.1,0.1-0.2c0.1-0.4,0.2-0.7,0.3-1.1c0.2-0.6,0.5-1.2,0.9-1.6c0.5-0.5,0.8-1.1,1.1-1.7
			c0.1-0.2,0.4-0.3,0.6-0.2c0.4,0.2,0.8,0.4,1.2,0.5c0.1,0,0.2,0.1,0.3,0.2c0.7,0.6,1.4,1.3,1.9,2.1c0.1,0.2,0.1,0.6-0.1,0.8
			c-0.1,0.1-0.1,0.2-0.2,0.2c-0.3,0.2-0.6,0.3-0.8,0.5c-0.3,0.3-0.6,0.7-0.8,1.1c-0.1,0.2-0.2,0.4-0.1,0.6c0.2,0.4,0.4,0.8,0.6,1.2
			c0.5,0.8,1.1,1.6,1.4,2.5c0.1,0.3,0.4,0.5,0.8,0.6c0.2,0,0.4-0.1,0.4-0.3c0-0.2-0.1-0.3-0.1-0.5c-0.1-0.2,0-0.4,0.1-0.6
			s0.4-0.2,0.6-0.1c0.2,0.2,0.3,0.3,0.5,0.5c0.3,0.3,0.6,0.7,0.8,1.1c0.3,0.4,0.2,1.1-0.1,1.6c-0.3,0.4-0.8,0.6-1.3,0.6
			c-0.6-0.1-1.2-0.4-1.7-0.7c-0.4-0.2-0.6-0.5-0.8-0.8c-0.2-0.5-0.4-0.9-0.4-1.4s-0.2-0.9-0.4-1.2c-0.5-0.8-1.1-1.6-1.7-2.2
			c-0.1-0.2-0.4-0.2-0.6-0.1c-0.9,0.6-1.4,1.4-1.8,2.4c-0.1,0.3-0.2,0.6-0.3,0.9c-0.2,0.4-0.6,0.7-0.9,0.6c-0.4-0.1-0.8-0.5-0.9-0.9
			c0-0.2,0-0.4,0-0.7c0.1-0.4,0.2-0.8,0.4-1.1C162,69.2,162,68.8,162,68.4L162,68.4z"/>
		<path class="st1" d="M139.9,66.4c0-0.6,0.1-1.1,0.5-1.5c0.1-0.1,0.2-0.3,0.3-0.4c0-0.1,0-0.2,0-0.3c-0.2-0.3-0.5-0.6-0.8-0.8
			c-0.4-0.4-0.5-0.9-0.5-1.4c0-0.1,0.1-0.2,0.2-0.3c0.5-0.2,1-0.4,1.6-0.1c0.6,0.3,1.3,0.6,2,0.8c0.7,0.3,1.2,0.8,1.5,1.5
			c0.1,0.1,0.1,0.3,0.1,0.5c0,0.3-0.1,0.7-0.3,0.9c-0.2,0.3-0.4,0.5-0.8,0.4c-0.1,0-0.1,0-0.2,0c-0.2,0-0.4,0.3-0.4,0.5
			c0.1,0.7,0.1,1.4,0.2,2.2c0,0.3,0.2,0.6,0.4,0.9c0.3,0.3,0.5,0.7,0.7,1.1c0.3,0.6,0.5,1.2,0.5,1.9c0,0.7,0,1.4,0.1,2.2
			c0,0.1,0,0.2-0.1,0.3s-0.1,0.2-0.2,0.2c-0.1,0-0.2,0-0.3,0c-0.5-0.6-0.9-1.2-0.8-1.9c0-0.1,0-0.1,0-0.2c-0.2-2.8-0.1-2.1-2-3.7
			c-0.1-0.1-0.3-0.2-0.4-0.3C140.3,68.2,139.9,67.5,139.9,66.4L139.9,66.4z M142,67.3c0-0.1,0-0.2,0-0.3c0-0.1-0.1-0.2-0.2-0.1
			c-0.1,0-0.1,0.2-0.1,0.2c0,0.1,0.1,0.2,0.1,0.3L142,67.3C141.9,67.4,142,67.3,142,67.3L142,67.3z"/>
		<path class="st1" d="M7.9,81.1c-1.5,0-2.9,0-4.2-0.2c-0.6-0.1-1.2-0.1-1.8-0.1c-0.5,0-1-0.1-1.5-0.3C0.2,80.4,0,80.1,0,79.8
			c0-0.2,0.1-0.3,0.1-0.5C0.2,79.2,0.4,79,0.6,79c0.8-0.1,1.6-0.1,2.3-0.2c0.3,0,0.6,0,0.8,0.1c0.9,0.2,1.7,0.3,2.6,0.3
			c0.6,0,1.2,0,1.8,0c0.3,0,0.6,0,0.8,0c1.4,0.3,2.8,0.2,4.1,0.3c0.9,0.1,1.8,0,2.7,0c1.4,0,2.8,0.1,4.1,0.2l0.1,0.1
			c0,0.1-0.1,0.2-0.1,0.2c-0.6,0.1-1.3,0.4-2,0.3c-0.1,0-0.2,0-0.3,0.1c-1,0.6-2,0.4-3.1,0.5c-0.2,0-0.4-0.2-0.6-0.2
			c-0.4,0-0.7,0.3-1.1,0.3c-0.3-0.1-0.7-0.1-1,0C10.5,81.2,9.1,81,7.9,81.1L7.9,81.1z"/>
		<path class="st1" d="M70.5,79.5c0.5,0,1,0.1,1.5,0.2c0.4,0.1,0.9,0.2,1.3,0.2c0.5,0,1,0,1.5,0.1c0.2,0,0.3,0.1,0.5,0
			c1.1-0.2,2.2,0,3.3,0c0.5,0,1,0,1.5-0.1c0.3-0.1,0.7-0.1,1-0.1c0.8,0.1,1.6,0,2.3-0.1c1.2-0.2,2.2,0.3,3.1,0.9
			c0.1,0.1,0.2,0.3,0.2,0.4s-0.1,0.2-0.1,0.3c-0.1,0.1-0.3,0.1-0.5,0.1c-0.7,0-1.4,0.1-2.2,0.1c-1.1,0-2.1,0-3.2,0.2
			c-0.5,0.3-1.1,0.3-1.7,0c-0.3-0.2-0.6-0.2-1-0.2c-1,0.1-2,0.1-3,0.1c-0.6,0-1.1,0-1.7-0.1c-1.7-0.3-3.4-0.7-5.1-1.1
			c-0.1,0-0.3-0.2-0.4-0.3c-0.1-0.1-0.1-0.2,0.1-0.3c0.4-0.1,0.9-0.2,1.3-0.2C69.7,79.6,70.1,79.5,70.5,79.5L70.5,79.5z"/>
		<path class="st1" d="M195.3,29.3c-0.1,0-0.1,0-0.2,0c-0.4-0.1-0.4-0.1-0.4-0.4c0-0.3,0-0.5,0.1-0.8c0-0.1-0.1-0.2-0.2-0.2
			c-0.1,0-0.2,0.1-0.2,0.2c-0.2,0.7-0.4,1.4-0.3,2.1c0,0.1-0.1,0.2-0.2,0.3c-0.1,0-0.2,0-0.2-0.1c-0.3-0.7-0.4-1.4-0.2-2.1
			c0.1-0.5,0.2-1.1,0.4-1.6c0.2-0.3,0-0.7,0-1c0-0.1-0.1-0.1-0.2-0.2c0,0-0.1,0-0.1,0.1c-0.3,0.5-0.6,1-0.6,1.6
			c-0.1,0.9-0.2,1.8-0.5,2.6c-0.1,0.5-0.2,0.9,0.1,1.3c0.4,0.6,0.4,1.2,0.2,1.9c-0.1,0.2-0.1,0.3-0.1,0.5c0.2,0.5-0.2,0.9-0.2,1.3
			c0,0.2-0.2,0.2-0.4,0.2c-0.4,0-0.7-0.2-0.8-0.5c-0.1-0.3-0.2-0.6-0.2-1c0-1.3,0-2.7,0-4c0-0.1,0-0.2,0-0.3
			c0.3-0.9,0.3-1.8,0.4-2.6c0.1-0.9,0.3-1.8,0.5-2.6c0-0.2,0.1-0.4,0.2-0.6c0.1-0.2,0.3-0.4,0.5-0.6c0.1-0.1,0.3-0.2,0.4-0.1
			c0.2,0.1,0.4,0.1,0.6,0.2c0.7,0.3,1.1,0.8,1,1.6c-0.1,0.8,0.1,1.6,0.4,2.4c0.2,0.3,0.3,0.7,0.3,1.1
			C195.6,28.4,195.5,28.8,195.3,29.3L195.3,29.3L195.3,29.3z M190.2,28.6v0.1c0.1,0.1,0.2,0.1,0.2-0.1l-0.1-0.1
			C190.3,28.5,190.3,28.6,190.2,28.6L190.2,28.6z"/>
		<path class="st1" d="M219.9,74.8c0.7,0,1.3,0,2,0c1,0,2,0.2,2.9,0.8c0.3,0.2,0.7,0.2,0.9,0c0.6-0.4,1.2-0.5,1.9-0.3
			c0.3,0.1,0.5,0.1,0.8,0.1c1.6-0.1,3.1,0.1,4.6-0.2c0.4-0.1,0.7,0,0.9,0.3v0.1c0,0.1-0.1,0.1-0.1,0.1c-0.1,0-0.1,0-0.2,0
			c-0.3,0-0.6-0.1-0.8-0.1c-0.3,0.1-0.6,0.2-0.9,0.3c-0.4,0.1-0.9,0.2-1.3,0.2c-0.4,0-0.8,0-1.2,0c-0.5,0-1,0.1-1.5,0
			c-0.6-0.2-1.2,0-1.8,0.2c-0.7,0.3-1.5,0.2-2.3,0.1c-0.3-0.1-0.5-0.3-0.6-0.5c0-0.1-0.1-0.2-0.2-0.3c-0.1-0.1-0.2,0-0.3,0
			c-0.4,0.1-0.7,0.3-1.1,0.2c-0.1,0-0.3,0-0.5,0.1c-1,0.6-2.1,0.7-3.2,0.7c-0.8,0-1.7,0-2.5-0.3c-0.4-0.1-0.8-0.1-1.2-0.1
			c-0.2,0-0.4-0.1-0.6-0.2c-0.2-0.1-0.2-0.4-0.1-0.6c0.3-0.3,0.6-0.5,1-0.5c0.8,0.1,1.7-0.2,2.5-0.2s1.7,0.1,2.5,0.1
			C219.8,74.9,219.9,74.9,219.9,74.8L219.9,74.8L219.9,74.8z M217.9,75.9c-0.1,0-0.2,0-0.2,0.1C217.7,76,217.8,76,217.9,75.9
			C217.9,76,217.9,76,217.9,75.9L217.9,75.9z"/>
		<path class="st1" d="M304.1,81.3c-1-0.1-1.8-0.1-2.6-0.2c-0.4-0.1-0.8,0-1.2-0.1c-0.3,0-0.6-0.2-1-0.1s-0.8,0-1.2-0.1
			c-0.7,0-1.3-0.3-2,0c-1.4,0-2.8,0.2-4.1,0.6c-0.7,0.2-1.3,0.1-2,0.1c-0.4,0-0.9-0.1-1.3-0.1c-0.3,0-0.6,0-0.8,0.1
			c-0.5,0.2-1,0.2-1.5,0.1c-0.3,0-0.7,0-1,0.1c-0.6,0.1-1.2,0.2-1.8,0.1c-0.1,0-0.2-0.1-0.2-0.2s0.1-0.2,0.2-0.2
			c0.1-0.1,0.2-0.1,0.3-0.1c0.7,0,1.3-0.1,2-0.3c0.3-0.1,0.7,0,1-0.1c0.3,0,0.7,0,1-0.1c1-0.4,2.1-0.3,3.1-0.1
			c0.3,0,0.5,0.1,0.8-0.1s0.6-0.2,1-0.2s0.9,0,1.3,0c0.2,0,0.4-0.1,0.6-0.2c0.4-0.3,0.8-0.3,1.3-0.3s1,0.1,1.5,0.1s1,0.1,1.5-0.1
			c0.7-0.2,1.4-0.2,2.1,0c0.2,0.1,0.4,0.1,0.7,0.1c1-0.1,2-0.1,3-0.1c0.5,0,0.8,0.3,0.9,0.8c0,0.2-0.2,0.5-0.3,0.5
			C304.8,81.2,304.3,81.3,304.1,81.3L304.1,81.3z"/>
		<path class="st1" d="M94.1,65.7c0,0.1,0,0.2,0,0.3c-0.2,0.5-0.6,0.9-0.8,1.5c-0.2,0.7-0.6,1.3-0.7,2c-0.2,0.7-0.5,1.4-0.7,2.1
			s-0.4,1.3-0.7,1.9C91.1,73.7,91,74,91,74.3c-0.1,0.8-0.2,1.5-0.3,2.3c-0.1,0.7-0.4,1.3-0.7,1.9c-0.1,0.2-0.5,0.3-0.7,0.2
			c-0.2-0.2-0.4-0.3-0.7-0.5c-0.2-0.2-0.3-0.5-0.2-0.8c0.1-0.1,0.1-0.2,0.2-0.3c0.6-0.9,0.9-1.9,1-3c0-0.4,0.1-0.8,0.3-1.1
			c0.4-1,0.6-2.1,1.2-2.9s0.8-1.8,1.5-2.6c0.2-0.2,0.2-0.5,0.4-0.7C93.2,66.4,93.6,66,94.1,65.7C94,65.6,94.1,65.7,94.1,65.7
			L94.1,65.7z"/>
		<path class="st1" d="M46.1,77.8c0.2,0,0.3,0,0.4,0c0.9,0.2,1.9,0.1,2.8,0c1-0.1,2-0.1,3,0.2c1,0.3,2.1,0.4,3.1,0.8
			c0.4,0.2,0.8,0.3,1.2,0.5c0.1,0,0.3,0.3,0.2,0.4S56.6,80,56.5,80c-0.3,0.2-0.7,0.1-1,0c-0.7-0.2-1.4-0.4-2.1-0.6
			c-0.2-0.1-0.4-0.1-0.6-0.2c-1.3-0.3-2.6-0.4-4-0.2c-0.3,0.1-0.7,0.1-1,0.1c-1.1,0-2.2-0.1-3.3-0.1c0,0-0.1,0-0.2,0
			c-0.1-0.1-0.3-0.2-0.3-0.4c0-0.1,0.1-0.3,0.2-0.4l0.1-0.1C45,78.1,45.6,78,46.1,77.8L46.1,77.8z"/>
		<path class="st1" d="M79.4,73.2c0-0.7-0.1-1.6-0.1-2.6c0-0.3,0-0.7,0-1c0.1-0.5,0.3-0.8,0.8-1c0.1,0,0.1,0,0.2,0s0.2,0.1,0.1,0.2
			c-0.3,0.5-0.2,1.1,0,1.6s0.4,1,0.4,1.6c0,0.2,0.1,0.3,0.2,0.4c0.3,0.3,0.4,0.6,0.2,1c-0.3,0.5-0.3,1.1-0.2,1.6c0.2,1,0.1,2,0.2,3
			c0,0.3-0.3,0.5-0.6,0.5c-0.4,0-0.7-0.2-0.9-0.6c-0.2-0.3-0.3-0.7-0.3-1.1C79.4,75.8,79.4,74.6,79.4,73.2L79.4,73.2z"/>
		<path class="st1" d="M19.2,75.9c0,0,0.1,0,0.2,0c0.6,0.2,1.3,0.2,2,0.3c0.8,0.1,1.6,0.2,2.5,0.1s1.8-0.1,2.6-0.1
			c0.2,0,0.3,0,0.5,0c0.6-0.2,1.2-0.3,1.8-0.3c0.5,0,1.1-0.2,1.6-0.1c0.2,0,0.3,0,0.5-0.1c0.9-0.3,1.8,0,2.6,0.2
			c0.2,0.1,0.4,0.4,0.4,0.7c0,0.1-0.1,0.2-0.2,0.2c-0.2,0-0.4,0.1-0.7,0c-0.4-0.1-0.7-0.3-1.1-0.4c-0.1,0-0.3-0.1-0.5,0
			c-0.3,0.1-0.6,0.2-1,0.1c-1-0.1-1.9,0.1-2.8,0.2c-0.3,0-0.7,0.1-1,0.1c-0.8-0.1-1.7,0.1-2.5,0.2c-0.4,0-0.8,0.2-1.1,0.3
			c-0.2,0.1-0.4,0.2-0.5,0.4c-0.1,0.3-0.4,0.4-0.7,0.4c-0.3,0-0.6-0.1-0.8-0.2c-0.5-0.2-1-0.4-1.5-0.6c-0.2-0.1-0.4-0.2-0.5-0.4
			c-0.2-0.2-0.2-0.6-0.1-0.8C19,76,19.1,75.9,19.2,75.9L19.2,75.9z"/>
		<path class="st1" d="M204.9,35.7c0.5,0.3,1.2,0.7,1.7,1c0.3,0.1,0.3,0.4,0,0.7c-0.1,0.3-0.4,0.3-0.6,0.2c-0.4-0.3-1-0.6-1.4-0.9
			c-0.4-0.3-0.7-0.5-1-0.9c-0.5-0.8-1.3-1.3-2-1.8c-0.3-0.1-0.6-0.1-0.9,0c-0.4,0.1-0.6,0-0.9-0.2c-0.9-0.8-1.7-1.8-1.9-3.1
			c0-0.1,0-0.2,0-0.3c0,0,0.1,0,0.1-0.1c0.3-0.1,0.6-0.2,0.8-0.1c0.5,0.2,1,0.4,1.4,0.9c0.6,0.9,1.5,1.8,2.4,2.5
			c0.3,0.1,0.4,0.4,0.5,0.7c0.2,0.3,0.5,0.7,1,0.9l0,0C204.5,35.4,204.7,35.6,204.9,35.7L204.9,35.7z M196.2,39L196.2,39
			c0,0,0-0.1-0.1-0.1l-0.1-0.1C196.1,38.9,196.1,38.9,196.2,39L196.2,39z"/>
		<path class="st1" d="M128.9,76.2c0.3-0.2,0.7-0.4,1.1-0.4c0.4,0,0.6-0.2,0.8-0.6c0.1-0.2,0.2-0.4,0.4-0.5c0.4-0.3,0.8-0.6,1.2-0.9
			c0.6-0.4,1.2-0.9,2-1.2c0.7-0.2,1.3-0.7,1.9-1c0.6-0.3,1.2-0.3,1.8-0.2c0.1,0,0.1,0.1,0.1,0.1c0,0.1,0,0.2-0.1,0.3
			c-0.1,0.1-0.2,0.1-0.3,0.2c-1.1,0.5-2.2,1.1-3.3,1.5c-0.2,0.1-0.4,0.2-0.6,0.4c-0.8,0.8-1.7,1.6-2.3,2.6c-0.1,0.1-0.1,0.2-0.2,0.2
			c-0.1,0.1-0.2,0.1-0.3,0.1s-0.1,0-0.2,0C130.3,76.4,129.6,76.6,128.9,76.2C129,76.3,128.9,76.2,128.9,76.2L128.9,76.2L128.9,76.2z
			"/>
		<path class="st1" d="M81.4,58.7c0.1,0,0.2,0.1,0.3,0.1c0.1,0,0.2,0.2,0.1,0.3c-0.1,0.2-0.3,0.3-0.5,0.5c-0.2,0.3-0.3,0.7-0.1,0.9
			c0.1,0.1,0.2,0.3,0.3,0.4c0.9,0.8,1.2,1.8,1.6,2.9c0.1,0.2,0.1,0.4,0.1,0.7c0,0.2-0.1,0.3-0.2,0.4c-0.1,0-0.2,0.1-0.3,0
			c-0.4-0.1-0.7-0.3-1-0.6c-0.4-0.4-0.7-0.8-1-1.3c-0.2-0.3-0.3-0.7-0.6-1c-0.3-0.4-0.4-0.9-0.5-1.4c0-0.3,0.1-0.5,0.3-0.7
			c0.1,0,0.2-0.2,0.2-0.2C80.2,58.7,80.8,58.7,81.4,58.7z"/>
		<path class="st1" d="M204.4,35.2c-0.4-0.8-0.8-1.5-1.1-2.4c-0.1-0.4-0.4-0.8-0.8-1.1c-0.4-0.4-0.7-0.8-1.1-1.2l-0.1-0.2
			c0.1,0,0.2-0.1,0.3,0c0.3,0.1,0.5,0.3,0.8,0.6l0.1,0l0.1-0.1c-0.2-0.3-0.4-0.5-0.6-0.8c-0.2-0.3-0.4-0.7-0.6-1.2l0,0
			c0.8,0.6,1.5,1.3,2.1,2c0.3,0.4,0.5,0.9,0.6,1.4c0.3,0.8,0.6,1.5,1.2,2.1c0,0.1,0.1,0.2,0.2,0.3c0.2,0.3,0,0.7-0.3,1
			c-0.1,0-0.2,0.1-0.3,0.2l0,0C204.8,35.4,204.7,35.3,204.4,35.2L204.4,35.2L204.4,35.2z"/>
		<path class="st1" d="M188.2,25c-0.2-0.4-0.5-0.6-0.9-0.7c-0.9-0.3-1.9-0.6-2.9-0.9c-0.4-0.1-0.9,0-1.3,0.2c-0.2,0.1-0.3,0-0.5-0.1
			s-0.2-0.6,0-0.7c0.1-0.1,0.2-0.1,0.3-0.2c0.6-0.1,1.1-0.2,1.6,0c0.7,0.2,1.4,0.5,2.1,0.7c0.9,0.3,1.6,0.7,2.4,1.1
			c0.3,0.1,0.5,0.1,0.8-0.1c0.1-0.1,0.2,0,0.3,0.1c0,0,0,0.1,0.1,0.2c0,0.4,0.2,0.8-0.2,1.1c-0.5,0.3-1.1,0.2-1.5-0.3
			C188.4,25.2,188.3,25,188.2,25L188.2,25L188.2,25z"/>
		<path class="st1" d="M188.1,19.8c0-0.6,0-1,0.1-1.3c0-0.1,0.1-0.2,0.1-0.3c0.1-0.2,0.4-0.3,0.6-0.2c0.4,0.3,0.6,0.8,0.4,1.2
			c-0.4,0.9-0.3,1.8-0.2,2.8c0.1,0.5,0.3,1,0.3,1.5l-0.1,0.1c-0.1,0-0.2,0-0.3,0c-0.1-0.1-0.2-0.3-0.3-0.4c-0.4-1-0.6-2-0.6-3.1
			C188.1,19.8,188.1,19.7,188.1,19.8L188.1,19.8z"/>
		<path class="st1" d="M156.7,61.8c1.1,0.1,2.2,0.2,3.3,0.6c0.4,0.1,0.8,0.1,1.1,0.1c0,0,0.1,0,0.1,0.1c0.1,0.1,0,0.2-0.2,0.2
			c-0.6,0-1.1,0-1.7,0.1c-0.9,0.1-1.6-0.1-2.4-0.5C156.8,62.2,156.7,62,156.7,61.8L156.7,61.8L156.7,61.8z"/>
		<path class="st1" d="M287,79.5c0.3,0,0.5,0,0.8,0c0.1,0,0.2,0.1,0.1,0.2l-0.1,0.1c-0.6,0.1-1.2,0-1.8,0.2c-0.1,0.1-0.3,0-0.5,0
			s-0.4-0.2-0.3-0.3c0.1-0.1,0.1-0.2,0.2-0.2c0.1-0.1,0.3-0.1,0.5-0.1C286.3,79.5,286.7,79.5,287,79.5L287,79.5L287,79.5z"/>
		<path class="st1" d="M278.6,81.9c0-0.1,0-0.2,0-0.3c0-0.2,0.1-0.3,0.3-0.3c0.5,0,1.1-0.1,1.6,0.2l0.1,0.1c0,0.1,0,0.2-0.2,0.2
			s-0.4,0.1-0.6,0C279.4,81.7,279,81.8,278.6,81.9L278.6,81.9L278.6,81.9z"/>
		<path class="st1" d="M192.5,25.7c-0.1,0.1-0.2,0.2-0.3,0.3c-0.1,0.1-0.3,0-0.4-0.1c-0.2-0.4-0.2-0.7,0-1.1c0-0.1,0.2-0.1,0.3-0.1
			s0.2,0.1,0.2,0.2C192.3,25.2,192.4,25.4,192.5,25.7z"/>
		<path class="st1" d="M189.8,20.8c0-0.2,0-0.4,0-0.6l0.1-0.1c0.1,0,0.2,0,0.2,0.1c0,0.4,0,0.8-0.1,1.1c0,0.1-0.1,0.2-0.2,0.2
			c-0.1,0-0.2-0.1-0.2-0.2C189.7,21.2,189.8,21,189.8,20.8L189.8,20.8z"/>
		<path class="st1" d="M95,64.1c0,0.2,0,0.4-0.2,0.6c-0.1,0.1-0.3,0.2-0.4,0.1s-0.2-0.2-0.1-0.3c0-0.2,0.1-0.4,0.2-0.6
			c0-0.1,0.2-0.1,0.2-0.1c0.1,0,0.2,0.1,0.2,0.2C95,63.9,95,64,95,64.1L95,64.1z"/>
		<path class="st1" d="M237.3,75.9c-0.3-0.1-0.6-0.1-1,0s-0.8,0-1.1-0.1l-0.1-0.1c0-0.1,0.1-0.1,0.1-0.1
			C236,75.5,236.7,75.5,237.3,75.9L237.3,75.9L237.3,75.9z"/>
		<path class="st1" d="M237.3,75.9c0.5-0.1,0.9-0.1,1.4-0.1l0.1,0.1c0,0.1-0.1,0.2-0.1,0.2C238.2,76.2,237.8,76.1,237.3,75.9
			L237.3,75.9L237.3,75.9z"/>
		<path class="st1" d="M282.7,81.6c0,0.2-0.2,0.2-0.4,0.2c-0.1,0-0.2-0.1-0.2-0.2c-0.1-0.1,0.1-0.3,0.3-0.3S282.7,81.4,282.7,81.6
			L282.7,81.6z"/>
		<path class="st1" d="M194.2,33.3c0.2,0.1,0.4,0.2,0.6,0.3c0.1,0,0.1,0.2,0.1,0.3s-0.1,0.1-0.2,0.2c-0.1,0-0.2,0-0.2-0.1
			C194.3,33.7,194.2,33.5,194.2,33.3L194.2,33.3L194.2,33.3z"/>
		<path class="st1" d="M278.6,81.9c-0.2,0.2-0.5,0.3-0.8,0.2c-0.1,0-0.2-0.1-0.3-0.2c0,0,0-0.1,0-0.2c0.1-0.1,0.2-0.2,0.3-0.1
			C278.1,81.8,278.3,81.8,278.6,81.9L278.6,81.9L278.6,81.9z"/>
		<path class="st1" d="M138.3,57.1c0.3,0,0.4,0.2,0.5,0.4c0.1,0.1,0,0.2-0.1,0.2s-0.1,0-0.1,0C138.3,57.5,138.2,57.3,138.3,57.1
			L138.3,57.1L138.3,57.1z"/>
		<path class="st1" d="M137.9,60.2c0.2,0.1,0.4,0.1,0.6,0.2l0.1,0.1c0,0.2-0.1,0.2-0.2,0.1C138.2,60.4,138.1,60.3,137.9,60.2
			L137.9,60.2z"/>
		<path class="st1" d="M126.1,71.7c-0.1,0.1-0.1,0.2-0.2,0.2s-0.2-0.1-0.2-0.2s0.1-0.2,0.2-0.2S126.1,71.6,126.1,71.7L126.1,71.7z"
			/>
		<path class="st1" d="M127.9,75.5c0.1,0,0.2-0.1,0.3-0.1c0.4,0,0.5,0.1,0.6,0.5c0,0.1,0,0.2,0,0.3l0,0c-0.2-0.1-0.5-0.2-0.7-0.3
			C128,75.8,127.9,75.7,127.9,75.5L127.9,75.5L127.9,75.5z"/>
		<path class="st1" d="M240.9,76.1c0,0,0,0.1-0.1,0.1s-0.2,0.1-0.3,0.1l-0.1-0.1c0.1-0.2,0.2-0.3,0.3-0.2
			C240.9,76,240.9,76.1,240.9,76.1L240.9,76.1z"/>
		<path class="st1" d="M242.4,76.4l-0.1,0.1c-0.1,0-0.2,0-0.3-0.1v-0.1C242.1,76.2,242.2,76.2,242.4,76.4
			C242.4,76.2,242.4,76.3,242.4,76.4z"/>
		<path class="st1" d="M242.3,81.7c-0.1-0.1-0.1-0.2-0.1-0.3c0.1-0.1,0.1-0.1,0.3-0.1c0.1,0.1,0.1,0.1,0.1,0.2
			C242.5,81.7,242.4,81.7,242.3,81.7L242.3,81.7z"/>
		<path class="st1" d="M171.4,8.9c-0.3,0.1-0.5,0.1-0.8,0l-0.1-0.1c0-0.1,0.1-0.1,0.1-0.1c0.2-0.1,0.4-0.1,0.6,0
			C171.3,8.7,171.3,8.8,171.4,8.9L171.4,8.9L171.4,8.9z"/>
		<path class="st1" d="M178.1,7.7c-0.3,0.1-0.5,0.1-0.8,0l-0.1-0.1c0-0.1,0.1-0.1,0.1-0.1c0.2-0.1,0.4-0.1,0.6,0
			C178,7.5,178,7.6,178.1,7.7L178.1,7.7L178.1,7.7z"/>
		<path class="st1" d="M171.8,8.9c0-0.1,0-0.2,0-0.3s0.1-0.2,0.2-0.2l0.1,0.1c0,0.1,0,0.1-0.1,0.1C171.9,8.8,171.9,8.8,171.8,8.9
			L171.8,8.9L171.8,8.9z"/>
		<path class="st1" d="M126.1,73.2c0,0.1,0.1,0.2,0.1,0.3l-0.1,0.1c0,0-0.1,0-0.1-0.1S126,73.3,126.1,73.2
			C126,73.3,126.1,73.2,126.1,73.2z"/>
		<path class="st1" d="M127.9,75.5c-0.1,0-0.2,0-0.3,0c-0.1,0-0.2-0.1-0.2-0.2l0.1-0.1c0.1,0,0.1,0,0.2,0.1
			C127.8,75.3,127.8,75.4,127.9,75.5L127.9,75.5L127.9,75.5z"/>
		<path class="st1" d="M244.3,81.7c0,0-0.1,0-0.1-0.1C244.2,81.7,244.3,81.7,244.3,81.7C244.5,81.7,244.5,81.7,244.3,81.7
			L244.3,81.7z"/>
		<path class="st1" d="M239.8,75.7c0,0-0.1,0.1-0.1,0c-0.1,0-0.1-0.1,0-0.2h0.1C239.8,75.6,239.8,75.7,239.8,75.7L239.8,75.7z"/>
		<polygon class="st1" points="189.9,22.6 190,22.5 190,22.6 		"/>
		<polygon class="st1" points="126.6,74.3 126.7,74.3 126.6,74.4 		"/>
		<path class="st1" d="M178.5,35.3c-0.1-0.1-0.2-0.1-0.2-0.2V35C178.5,35.1,178.4,35.2,178.5,35.3L178.5,35.3L178.5,35.3z"/>
		<path class="st1" d="M283.9,79.6L283.9,79.6L283.9,79.6z"/>
		<path class="st1" d="M186.9,77.8h-0.1C186.7,77.7,186.8,77.7,186.9,77.8L186.9,77.8z"/>
		<path class="st1" d="M171.4,8.9c0.1,0,0.3,0,0.4,0l0,0C171.7,9,171.5,9,171.4,8.9L171.4,8.9L171.4,8.9z"/>
		<polygon class="st1" points="185.4,49.7 185.5,49.8 185.5,49.7 		"/>
	</g>
</g>
<path class="st1" d="M181.6,47.4l-2.2,6.7c-0.1,0.3,0.1,0.6,0.4,0.6l7.9,0.8c0.2,0,0.5-0.1,0.5-0.4l0.5-3.9c0.1-0.5,0.8-0.5,0.9,0
	l0.7,4.5c0,0.3,0.3,0.4,0.6,0.4l10.4-3.1c0.3-0.1,0.4-0.4,0.2-0.7l-9.6-13.4c-0.1-0.1-0.2-0.1-0.3-0.2l-13.4-3.4
	c-0.3-0.1-0.6,0.2-0.5,0.5l1.7,9.5c0,0.1,0.1,0.2,0.2,0.3l1.9,1.2C181.6,47,181.7,47.2,181.6,47.4z"/>
<path class="st1" d="M180.5,4.6"/>
</svg>
