<?xml version="1.0" encoding="UTF-8"?>
<svg id="Layer_2" data-name="Layer 2" xmlns="http://www.w3.org/2000/svg" viewBox="0 0 699.38 458.62">
  <defs>
    <style>
      .cls-1 {
        fill: #231f20;
      }

      .cls-1, .cls-2, .cls-3, .cls-4 {
        stroke-width: 0px;
      }

      .cls-2 {
        fill: #bbcdd0;
      }

      .cls-3 {
        fill: #cf594f;
      }

      .cls-4 {
        fill: #6a7e76;
      }
    </style>
  </defs>
  <g id="Layer_1-2" data-name="Layer 1">
    <g>
      <g>
        <path class="cls-2" d="m597.04,329.07c-4.04-3.06-8.21-5.97-12.52-8.63-4.28-2.64-8.36-5.54-12.77-7.99-4.72-2.62-9.83-4.09-15.01-5.54-5.28-1.47-10.59-2.82-15.88-4.29-5.47-1.52-11.09-2.43-16.61-3.71-1.15-.27-2.33-.49-3.46-.83-.39-2.92-1.79-5.27-4.79-6.48-.15-.06-.31-.1-.47-.15.02-.1.04-.19.06-.29.19-1.1.22-2.27-.02-3.37-.71-3.27-3.46-5.34-6.68-5.74-.47-.06-.94-.06-1.42-.08-.13,0-.25-.01-.38-.01-.12-.27-.31-.7-.29-.61-.61-2.18-.34-5.26-.91-7.75-.64-2.8-1.57-5.45-2.94-7.98-2.37-4.36-5.68-8.29-9.56-11.39-.5-4.43-1.55-8.71-3.02-12.86.07-.51,0-1.06-.19-1.59-.42-1.13-.95-2.21-1.51-3.28-6.48-13.68-14.8-26.81-25.08-37.99-1-2.7-2.01-5.37-3.18-8.07-3.19-7.32-5.96-14.12-8.06-21.65-2.15-7.72-3.64-15.65-7.02-22.98-3.29-7.15-8.17-13.39-12.51-19.91-8.89-13.35-14.96-28.27-22.83-42.21-.71-1.26-1.44-2.5-2.19-3.75,1.89,2.91,3.79,5.8,5.82,8.63.76,1.06,2.29-.17,1.8-1.26-4.74-10.53-11.91-20.06-18.72-29.34-3.42-4.67-7.01-9.21-10.58-13.77-3.58-4.57-7.78-9.08-10.21-14.4-.43-.95-1.8-.21-1.43.73,2.12,5.32,5.97,9.92,9.25,14.56,3.36,4.75,6.68,9.52,10.05,14.26,2.49,3.5,4.94,7.04,7.36,10.6-1.59-2.13-3.26-4.21-5.04-6.18-2.55-2.84-5.36-5.45-7.73-8.45-2.3-2.9-4.13-6.36-5.97-9.72-.53-.97-1.09-1.92-1.66-2.87.11-.33.09-.71-.14-1.07-2.92-4.55-5.95-9.03-8.73-13.67-.59-.98-1.76-.88-2.42-.31-.24-.32-.49-.64-.74-.96-.9-1.61-1.79-3.23-2.68-4.85-.59-1.07-1.18-2.14-1.77-3.21-.25-.45-.49-.9-.72-1.35-.05-.09-.09-.18-.14-.27.4-1.89-.53-4.11-2.56-4.69-1.54-.44-2.96-1.02-4.36-1.69-.66-1.5-2.24-2.63-3.94-2.14-2.25.66-4.51.82-6.71,1.76-2.34,1-3.94,2.56-5.52,4.51-2.58,3.18-5.17,6.48-7.04,10.14-2.59,5.08-5.07,10.21-6.9,15.58-1.09,1.94-2.12,3.91-3.13,5.87-2.37,4.6-4.53,9.31-6.49,14.1-.53,1.31,1.52,1.94,2.07.67,1.88-4.35,3.96-8.6,6.21-12.77.31.07.66-.06.8-.48.4-1.15.87-2.29,1.37-3.41,1.88-3.19,3.86-6.31,5.65-9.54,1.5-1.98,3.12-3.85,4.88-5.57,2.6-2.54,5.01-5.29,7.42-8.01,1.23-1.38,2.43-2.83,3.82-4.05.2-.17.44-.31.67-.46,3.56,2.75,6.91,5.76,9.99,9.04,1.03,1.4,2.17,2.71,3.42,3.93,1.93,2.38,3.73,4.86,5.34,7.47,1.87,3.03,3.29,6.19,4.77,9.42,1.6,3.5,2.93,7.12,4.72,10.53,1.95,3.71,4.68,6.95,7.46,10.06,2.5,2.8,5.04,5.52,7.31,8.51,2.18,2.86,4.03,5.72,6.01,9.03,8.09,13.56,14,28.29,22.26,41.75,4.07,6.63,8.94,12.74,12.77,19.52,3.85,6.81,5.45,13.48,7.41,21.12,2.22,8.66,5.21,17.13,8.85,25.3.91,2.03,1.84,4.08,2.86,6.05,1.02,1.98,2.35,3.84,3.54,5.72,2.38,3.8,4.51,8.04,7.59,11.31,1.52,1.62,4,.85,4.74-.9,1.26,2.44,2.5,4.89,3.73,7.34,2.86,5.69,5.62,11.63,7.55,17.68.85,2.65,1.49,5.34,2.04,8.06-1.39,1.73-2.24,4.3-2.96,6.32-.78,2.19-1.43,4.38-2.4,6.51-.17.36-.88,1.78-1.28,2.53-.55,1.04-1.14,2.06-1.7,3.09-1.17,2.16-2.29,4.35-3.41,6.53-2.31,4.49-4.62,9.14-7.4,13.37-1.3,1.97-2.77,3.83-4.34,5.6-5.63,4.29-11.79,7.76-18.62,9.8-1.52.45-1.08,2.64.5,2.41,11.71-1.65,21.1-8.34,29.59-16.13,1.18,1.17,3.17,1.63,4.62.29,2.66-2.45,5.16-4.97,8.1-7.1.96-.69,1.96-1.32,2.97-1.94-.1.41-.19.82-.27,1.24-.48,2.42-1.15,5.27-.53,7.71,1.38,5.45,7.19,4.88,12.04,4.33.99,1.25,2.46,2.09,4.01,2.19.55,2.29,1.45,4.3,2.94,6.2,2.08,2.64,5.6,4.52,8.97,4.5.83.85,1.86,1.54,3.13,2.03,2.4.94,5.17,1.2,7.67,1.81,2.7.66,5.38,1.37,8.09,1.99,5.5,1.27,11.1,2.04,16.6,3.34,5.21,1.23,10.27,2.82,15.36,4.46,5.44,1.76,11.1,2.78,16.51,4.67,5.37,1.88,10.54,4.81,15.42,7.7,1.47.87,2.75-1.2,1.41-2.22Zm-111.92-64.15c.29.4.61.79.96,1.12.39.37.82.71,1.23,1.04,0,0,.52.42.73.56.03.04.06.09.09.13.03.07.09.24.13.36.04.21.13.63.15.7.05.28.09.55.13.83-1.53.32-2.98,1.14-4.34,1.95-.31.18-.62.38-.92.57-.34-.68-.96-1.18-1.69-1.41,1.27-1.89,2.47-3.83,3.54-5.86Z"/>
        <path class="cls-1" d="m391.5,139.68c-4.62,1.59-9.2,1.84-14.03,1.74-4.84-.1-9.62-.99-14.27-2.29-4.81-1.35-9.57-2.85-14.23-4.67-4.62-1.8-9.15-3.81-13.73-5.69-4.6-1.88-9.11-3.95-13.76-5.74-4.53-1.74-9.14-2.85-13.86-3.91-2.56-.58-5.2-.86-7.82-.7-3.27.21-6,.61-8.67,2.58-4.63,3.42-4.98,9.92-5.69,15.12-3.33,24.58-6.66,49.16-9.99,73.74-.78,5.74-1.55,11.48-1.95,17.27-.41,5.9-.28,11.76.25,17.65.52,5.77,1.38,11.5,1.94,17.26.5,5.2.45,10.8.46,16.25,0,5.75.29,11.62,1.96,17.15,1.72,5.7,3.76,11.28,5.99,16.8,2.09,5.16,4.05,10.45,5.34,15.88,1.29,5.42,2.24,10.96,2.67,16.52.21,2.77.29,5.55.27,8.33,0,.93,1.32.99,1.43.08.7-5.55.93-11.15.66-16.74-.27-5.5-1.25-10.86-2.24-16.26-1.04-5.66-3.47-11.11-5.43-16.49-.95-2.62-1.92-5.3-2.41-8.06-.46-2.59-.73-5.28-.86-7.8-.29-5.51.02-11.05.02-16.57,0-5.86-.54-11.69-1.2-17.5-.63-5.56-1.36-10.91-1.51-16.31-.15-5.79.29-11.57.94-17.32,1.36-11.93,3.15-23.82,4.76-35.72,1.63-12.05,3.26-24.11,4.89-36.16.42-3.07.83-6.15,1.25-9.22l.58-4.25c.08-.62.17-1.24.26-1.86.04-.31.09-.61.14-.92.02-.13.03-.22.04-.28.01-.06.03-.13.05-.24.22-1.09.49-2.15.88-3.2-.02.05.15-.36.23-.56.1-.19.32-.59.29-.54.12-.21.26-.41.4-.6-.05.07.44-.55.44-.57,1.67-1.86,3.99-2.6,6.49-2.88,4.86-.56,9.61-.18,14.36.97,4.7,1.14,9.2,2.85,13.59,4.88,9,4.15,17.23,9.87,26.55,13.34,9.08,3.38,19.32,5.17,28.74,2.18,2.25-.71,4.41-1.63,6.47-2.77.95-.53.46-2.29-.67-1.9Z"/>
        <path class="cls-1" d="m470.01,188.88c-7.13-13.02-13.12-26.57-18.56-40.37-5.44-13.78-10.56-27.7-16.63-41.22-6.05-13.49-13.33-26.34-22.35-38.07-8.63-11.23-18.3-21.64-26.38-33.31-2-2.89-3.9-5.86-5.65-8.91-1.73-3.01-3.06-6.22-4.77-9.23-1.94-3.42-4.34-5.84-7.68-7.92-3.08-1.92-6.2-3.78-9.3-5.66-2.98-1.81-6.44-4.74-10.18-4.08-3.29.59-6.28,3.47-8.68,5.64-4.94,4.48-9.05,9.87-12.57,15.51-3.51,5.63-6.75,11.72-9.22,17.88-2.56,6.39-5.48,12.63-8.06,19.01-2.62,6.48-4.95,13.07-7.16,19.69-2.22,6.64-3.82,13.48-5.49,20.27-.8,3.27-1.64,6.53-2.41,9.8-.04.18-.02.33.03.47-.09.68.96,1,1.39.42,2.22-2.98,4.88-5.57,7.19-8.47,2.2-2.77,4.59-5.34,6.9-8.02,1.08-1.26,2.22-2.48,3.23-3.79.48-.62,1.12-1.32,1.37-2.08.26-.8,0-1.56.04-2.36.03-.91,1.08-2.3,1.5-3.28.03-.07.05-.15.08-.22,1.06,3.95,2.13,7.9,3.3,11.82.46,1.56,2.44,1.32,2.72-.2.99-5.31,2.15-10.58,3.45-15.82,3.24,3.84,7.04,7.18,11.27,9.9.75.48,1.75.09,2.03-.73,1.41-4.13,3.02-8.19,4.82-12.17,2.24,3.4,4.66,6.69,7.28,9.81.61.73,1.61.45,2.13-.19,1.92-2.37,3.67-4.83,5.21-7.43.7,3.09,1.65,6.12,2.85,9.07.31.77,1.6,1.04,2.16.39,1.55-1.82,3.11-3.63,4.65-5.45,1.05,5.02,1.55,10.2,1.7,15.31.04,1.37,1.57,1.79,2.41.77.91-1.1,1.82-2.21,2.73-3.31,1.16,7.63,3.82,14.93,6.22,22.25,2.48,7.57,4.95,15.11,7.76,22.55-2.3-1.69-4.44-3.77-6.01-6.16-.66-1-2.02-1.2-2.75-.13-1.24,1.81-2.52,3.61-3.72,5.45-.52.79-1,1.6-1.53,2.38-.12.19-.25.38-.4.55-.08.05-.15.1-.19.13-.2-.2-.4-.64-.48-.77-2.19-3.62-4.39-7.24-6.58-10.86-.52-.86-1.71-1.21-2.51-.45-2.09,2-4.15,4-6.2,6.03-1.99-3.94-4.02-7.86-5.86-11.87-.4-.88-1.69-1.09-2.37-.42-1.92,1.88-3.51,3.94-4.91,6.17-1.49-3.79-2.85-7.62-4.06-11.51-.35-1.13-1.55-1.56-2.5-.81-1.66,1.32-3.35,2.54-4.83,4.07-1,1.04-1.94,2.14-2.84,3.27-3.82-3.36-6.84-7.52-8.94-12.16-.59-1.3-2.23-1.09-2.99-.14-2.4,3-4.39,6.29-5.95,9.79-2.22-3.7-4.44-7.4-6.79-11.01-.55-.85-1.97-1.2-2.55-.12-2.06,3.78-4.13,7.56-6.11,11.38-.48.93.77,1.77,1.39.89,1.98-2.86,3.91-5.75,5.84-8.64,2.26,4.11,4.65,8.15,6.99,12.22.76,1.31,2.71,1.21,3.22-.26,1.25-3.58,2.97-6.94,5.13-10.03,2.51,4.67,5.94,8.76,10.08,12.13.78.63,1.93.15,2.45-.54,1.83-2.47,3.92-4.96,6.22-7.09,1.41,4.25,2.96,8.46,4.69,12.59.42,1.01,2.05,1.08,2.57.12,1.26-2.33,2.85-4.5,4.58-6.52,1.96,3.95,3.79,7.98,5.67,11.96.45.94,1.8,1.17,2.54.45,2.13-2.05,4.24-4.12,6.33-6.21,1.06,1.73,2.12,3.46,3.18,5.19l2.09,3.41c.58.95,1.13,2.04,2.14,2.6,2.3,1.29,4.06-.94,5.23-2.61,1.17-1.68,2.29-3.39,3.4-5.1,1.69,2.26,3.58,4.27,5.85,6.05,1.01.79,2.09.19,2.55-.74.1.26.2.53.3.79.57,1.43,3.01.58,2.57-.91-2.6-8.75-5.75-17.29-8.88-25.87-2.96-8.1-5.94-16.31-6.79-24.95-.13-1.29-1.76-1.21-2.4-.44-.84,1.03-1.68,2.05-2.53,3.08-.36-5.08-1.14-10.08-2.14-15.1-.18-.92-1.49-1.46-2.18-.7-1.66,1.84-3.28,3.72-4.9,5.6-1.16-3.32-2-6.74-2.52-10.23-.17-1.18-2.05-1.59-2.61-.48-1.66,3.3-3.6,6.49-5.82,9.45-2.62-3.23-5.04-6.6-7.24-10.13-.47-.76-1.86-1.13-2.35-.11-2.04,4.3-3.85,8.69-5.46,13.17-4.2-2.92-7.88-6.47-10.96-10.57-.61-.81-2.07-.44-2.31.51-1.16,4.49-2.21,9.01-3.15,13.56-1.08-3.44-2.21-6.86-3.34-10.28-.36-1.08-1.99-1.11-2.08.16-.11,1.42-.53,2.8-1.13,4.09-.29.64-.67,1.34-1.12,1.88-.32.38-.61.32-1.2.48-1.72.47-2.8,2.18-3.9,3.5-.99,1.19-2.06,2.38-2.99,3.63-1.74,2.35-3.36,4.77-4.94,7.23,3.33-9.1,7.03-18.06,10.79-26.98,2.61-6.2,5.3-12.37,8.16-18.46,2.81-5.98,5.95-11.8,9.1-17.61,3.05-5.62,6.28-11.2,10.22-16.26,1.83-2.35,3.86-4.54,6.05-6.55,1.09-1,2.22-1.95,3.39-2.85.44-.33.97-.87,1.52-1.04,0,0,0-.03,0-.06.08.04.37.06.26.01,1.54.62,3,1.79,4.42,2.63,1.58.94,3.15,1.88,4.73,2.82,2.83,1.69,5.96,3.21,8.46,5.37,2.51,2.16,3.71,5.39,5.27,8.23,1.65,3.01,3.41,5.95,5.29,8.81,7.7,11.68,17.1,22.07,25.62,33.13,8.7,11.28,15.95,23.37,21.96,36.28,12.17,26.11,20.07,54.18,33.73,79.61,13.68,25.48,32.39,48.04,44.73,74.26,1.37,2.91,2.64,5.86,3.85,8.85.05.25.11.49.16.74.14.63.29,1.26.37,1.9-.03.13-.04.27-.02.4.1.49.63.87,1.13.74.48-.12.88-.61.74-1.13-.04-.17-.14-.33-.27-.47-.06-.13-.1-.25-.15-.39.89-.13,1.74-.88,1.39-1.86-9.9-28.04-27.05-52.55-41.24-78.47Z"/>
        <path class="cls-1" d="m336.75,344.47c-1.2.27-2.26.95-3.46,1.27-1.23.32-2.49.47-3.75.6-2.47.25-4.92.28-7.26,1.21-1.35.53-2.57,1.33-3.92,1.87-1.49.6-3.11.71-4.68.93-1.45.2-2.9.42-4.35.63-.93.14-1.84.24-2.77.28-.68.03-1.56.19-2.27.1-.29-.29-.66-.5-1.07-.49-3.24.07-6.44.5-9.58,1.29-2.91.73-6.56,1.9-8.35,4.49-.79,1.14.37,2.39,1.55,2.25,1.4-.16,2.8-.81,4.13-1.28,1.32-.46,2.67-.88,4.01-1.25,2.81-.78,5.69-1.31,8.49-2.14.44-.13.88-.44,1.13-.86.65-.28,1.42-.4,2.07-.57.82-.22,1.62-.41,2.45-.55,1.6-.26,3.19-.53,4.79-.79,1.48-.24,2.99-.4,4.42-.83,1.49-.44,2.84-1.22,4.3-1.72,2.63-.91,5.43-.68,8.16-.68,2.36,0,5.54-.06,7.11-2.11.58-.76-.27-1.86-1.14-1.66Z"/>
        <path class="cls-1" d="m610.62,338.27c-1.97,1.41-4.81,1.71-7.12,2.22-5.39,1.2-11.02,1.64-16.51,2.18-11.14,1.09-22.36,1.74-33.55,2.07-5.55.16-11.14.37-16.69.15-5.49-.21-10.95-.61-16.41-1.19-11.23-1.19-22.39-2.9-33.39-5.47-2.82-.66-5.61-1.5-8.38-2.36-2.71-.84-5.33-1.93-8.01-2.87-5.51-1.93-10.8-4.33-16.2-6.55-10.8-4.44-22.13-7.4-32.96-11.73-1.17-.47-.96-2.42.42-2.28,2.79.3,5.54.66,8.3,1.19,5.62,1.09,11.13,2.38,16.59,4.11,5.46,1.73,10.58,4.26,15.76,6.65,2.54,1.17,5.14,2.22,7.78,3.14,2.66.94,5.3,1.47,8.06,2.02,5.36,1.07,10.76,1.97,16.15,2.84,10.63,1.7,21.24,3.32,31.98,4.23,10.79.91,21.58,1.9,32.4,2.13,10.67.23,21.34-.44,31.95-1.6,2.73-.3,5.45-.63,8.17-.99,2.74-.37,5.5-.43,8.24-.7.43-.04.86-.18,1.29-.21-.03,0,.11-.05.23-.1-.03,0-.06-.02-.1-.03-.5-.12-1.12-.65-1.59-.89-.53-.28-1.05-.59-1.58-.87-2.26-1.18-4.58-2.2-6.8-3.46-2.28-1.28-4.52-2.59-6.61-4.16-2.09-1.57-4.19-3.14-6.26-4.74-4.07-3.15-8.14-6.2-12.59-8.79-4.51-2.63-8.83-4.55-13.74-6.44-4.91-1.89-9.88-3.62-14.91-5.14-9.32-2.82-20.02-4.1-26.72-11.94-3.22-3.77-5.32-8.75-6.77-13.45-1.37-4.41-3.09-8.78-6.55-11.99-1.48-1.38.59-3.52,2.17-2.59,2.11,1.23,3.86,2.86,5.31,4.83,1.5,2.03,2.7,4.22,3.83,6.47,1.15,2.3,1.96,4.7,2.92,7.07,1.77,4.35,3.92,8.52,8.09,10.99,4.27,2.53,9.44,3.21,14.23,4.12,5.25,1,10.5,2.05,15.67,3.45,10.47,2.83,20.48,7.91,28.93,14.69,2.31,1.85,4.35,3.61,6.48,5.56,1.88,1.71,3.86,3.34,5.66,5.12,1.85,1.83,3.71,3.63,5.75,5.25,1.03.82,2.11,1.66,3.25,2.34,1.16.69,2.5,1.05,3.63,1.78,2.25,1.47,2.43,4.34.22,5.92Z"/>
        <path class="cls-1" d="m420.17,317.11c-1.19.37-1.87,1.1-2.84,1.82-1.04.78-2.23,1.4-3.38,2-2.12,1.09-4.34,1.96-6.6,2.71-2.38.79-4.8,1.49-7.26,2.03-2.33.52-4.72.79-7.07,1.21-4.88.87-9.91,1.44-14.58,3.18-1.23.46-2.36,1.05-3.53,1.63-.52.26-1.04.5-1.57.76-.26.13-.52.26-.78.37,0,0-1.01.38-.69.28-1.09.33-1.81.38-2.66.37-1.2-.02-2.39-.14-3.59-.21-5.98-.38-11.3,1.84-16.6,4.32-1.41.66-.52,2.6.86,2.43,2.5-.29,4.99-.54,7.5-.59,2.55-.05,4.86.22,7.26.64,2.51.43,4.92.78,7.47.43,2.8-.38,5.25-1.77,7.57-3.29,2.15-1.41,3.98-2.92,6.3-4.21,2.09-1.16,4.32-2.24,6.59-3.03,2.34-.81,4.69-1.6,7.05-2.32,2.4-.73,4.88-1.23,7.3-1.91,2.6-.73,5.16-1.61,7.64-2.68,1.19-.51,2.35-1.09,3.49-1.72,1.26-.7,2.56-1.15,3.37-2.4.53-.82-.24-2.16-1.27-1.84Z"/>
        <g>
          <path class="cls-1" d="m245.58,360.05c-.81,0-1.6.04-2.4.19-.79.15-1.53.45-2.31.65-1.53.39-3.24.44-4.81.45-3.25.01-6.47-.42-9.6-1.28-.61-.17-.91.73-.3.94,3.17,1.08,6.48,1.73,9.82,1.91,1.64.09,3.27.01,4.92.02.86,0,1.7.11,2.56-.03.92-.14,1.73-.45,2.55-.87.89-.45.64-1.98-.42-1.98Z"/>
          <path class="cls-1" d="m286.54,337.37c-1-.28-1.8.09-2.72.29-1.55-.38-3.3.16-4.81.55-.57.15-1.14.33-1.71.49,1.93-.82,3.83-1.69,5.68-2.65,1.15-.6.52-2.7-.79-2.24-3.92,1.38-7.89,1.61-11.99,2.06-4.01.44-7.92,1.41-11.76,2.63-4.13,1.31-8.17,2.94-11.71,5.47-1.57,1.12-2.79,2.67-4.21,3.97-1.53,1.41-3.28,2.71-4.63,4.3-.47.56.03,1.31.73,1.05,1.85-.71,3.54-1.73,5.4-2.41,1.8-.66,3.68-.86,5.49-1.48,3.95-1.36,7.72-3.18,11.59-4.73,2.35-.94,4.76-1.72,7.16-2.52-1.69.9-3.27,1.99-4.53,3.41-.88.99-1.4,2.11-1.12,3.47.25,1.21,1.23,2.46,2.48,2.76,3.84.9,8.04,1.26,11.97,1.29,2.01.02,4.02-.06,6.02-.26,1.83-.19,3.95-.16,5.41-1.39.67-.57.47-1.6-.18-2.06-1.44-1.02-3.51-.9-5.2-1.14-1.79-.26-3.59-.52-5.37-.85-.6-.11-1.19-.23-1.79-.35.22-.09.43-.18.65-.28,1.56-.72,3.08-1.49,4.58-2.33,1.41-.79,3.36-1.7,4.2-3.19.73-.47,1.49-.61,1.99-1.48.49-.84.17-2.06-.84-2.34Z"/>
        </g>
        <path class="cls-1" d="m430.9,339.31c-2.06-1-4.21-1.27-6.46-1.6-2.18-.31-4.45-.18-6.62.17-4.32.69-8.55,2.38-12.59,3.97-1.95.77-3.96,1.51-5.81,2.51-1.91,1.02-3.73,2.29-5.61,3.38-.85.49-1.67,1.05-2.52,1.55-1.04.62-2.25.92-3.41,1.25-2.18.63-4.4,1.15-6.63,1.6-2.33.48-4.68.88-7.03,1.31-2.45.45-4.86.63-7.34.83-1.13.09-2.24.01-3.36.23-1.28.25-2.49.51-3.79.67-2.67.33-5.13,1.35-7.59,2.39-4.46,1.9-8.85,3.87-13.44,5.29-4.73,1.46-9.58,2.59-14.43,3.57-5.41,1.09-10.85,2.05-16.27,3.13-5.7,1.13-11.35,2.47-16.99,3.89-.88.22-.87,1.68.12,1.66,10.06-.25,20.07-.89,30.07-1.98,9.93-1.08,19.85-3.12,29.02-7.16,2.26-.99,4.46-2.08,6.68-3.15,1.11-.54,2.17-1.14,3.22-1.78,1.09-.66,2.12-1.62,3.31-2.07,2.19-.83,4.2-1.96,6.41-2.75,2.34-.84,4.93-1.05,7.38-1.42,4.54-.67,8.93-1.58,13.34-2.85,1.99-.57,4.18-.6,6.23-.97,2.07-.37,4.15-.69,6.16-1.29,4.58-1.38,9.04-2.98,13.71-4.05,2.24-.51,4.51-.94,6.75-1.47,1.11-.26,2.19-.61,3.32-.78.93-.14,1.84-.24,2.75-.42-2.09,1.11-4.37,1.79-6.74,2.02-.44.04-.72.57-.64.97.1.46.53.7.97.64,2.94-.4,5.76-1.5,8.2-3.18.29-.2.45-.53.28-.87-.08-.15-.23-.27-.39-.32.78-.85.95-2.33-.27-2.93Z"/>
        <path class="cls-1" d="m391.97,64.13c-.24-.42-.9-.08-.67.34,6.77,12.19,12.21,24.98,16.63,38.2,4.27,12.76,6.87,25.96,10.77,38.82,1.06,3.5,2.16,7.16,3.79,10.44,1.59,3.2,3.68,6.92,6.81,8.81,1.43.87,2.96-.66,2.33-2.12-.66-1.53-1.63-2.74-2.56-4.11-.92-1.34-1.81-2.71-2.68-4.09-1.75-2.79-3.42-5.54-4.79-8.55-2.78-6.11-4.45-12.7-6.15-19.16-3.43-13.02-7.45-25.79-13.08-38.04-3.21-6.98-6.61-13.87-10.4-20.56Z"/>
        <path class="cls-1" d="m440,172.63c-.73-.24-1.71-.19-2.39.19-.7.4-1.33,1.02-1.55,1.83-.17.61-.16,1.16-.02,1.73-.01.09-.04.18-.04.28,0,.28.04.54.09.79-.01,0-.02,0-.03,0,.13.51.34,1.01.56,1.5-.25.41-.41.86-.38,1.32.14,2.34.69,4.68,1.97,6.66.06.1.12.19.19.28.03.05.06.1.1.16,0,0,0,0,.01-.01.14.16.29.31.49.44.52.33,1.29.5,1.89.35,1.05-.27,1.91-1.18,2.02-2.25.85-.58,1.37-1.51,1.4-2.56.09-.17.17-.35.23-.54.24-.86.13-1.6-.2-2.43-.81-2.07-1.67-4.12-2.51-6.18-.29-.7-1.13-1.33-1.83-1.55Z"/>
        <path class="cls-1" d="m472.77,253.09c-1.26,1.44-2.53,2.86-3.51,4.51-.95,1.61-1.88,3.23-2.81,4.85-1.92,3.32-3.68,6.73-5.74,9.98-4.09,6.43-8.97,12.35-14.11,17.97-2.96,3.24-6.22,6.01-9.81,8.53-.94.66.16,2.21,1.15,1.65,3.42-1.92,6.75-4.05,10.03-6.2,3.37-2.21,6.61-4.61,9.44-7.48,5.58-5.65,10.77-12.1,14.26-19.27,1.05-2.15,1.88-4.34,2.57-6.62.69-2.29.88-4.49.75-6.87-.05-1.01-1.38-2.03-2.23-1.05Z"/>
        <path class="cls-1" d="m475.09,247.55c.17.81.61,1.56,1.55,1.56.39,0,.57.46.39.76-.18.31-.36.62-.54.94-.2.35-.67.06-.59-.28.02-.1.04-.19.07-.29-.92.05-1.84-.37-2.51-1.04-1.18-1.18-1.02-3.09-.72-4.58.14-.67.4-1.34.43-2.02.01-.37.01,0-.02-.36,0,0,0,0,0,0-.04.03-.06.04-.1.07-.66.34-1.52.37-2.15-.08-.51-.35-.96-.92-1.06-1.55-.14-.83.13-1.47.67-2.09.53-.6,1.55-.64,2.22-.32.34.16.64.43.86.76.24.05.47.12.7.25.51.3.94.78,1.24,1.29.67,1.13.47,2.5.08,3.69-.36,1.09-.74,2.14-.5,3.3Z"/>
        <g>
          <path class="cls-1" d="m401.08,227.47c-4.36-.39-8.69-.41-13.04.12-1.26.15-1.12,2.33.17,2.25,2.43-.16,4.91-.16,7.38,0-.89.14-1.73.37-2.58.7-1.06.42-2.27,1.2-2.91,2.15-.66.99-.39,2.35.49,3.1.74.62,1.77.71,2.61.29,0,0,0,.01,0,.02.34-.12.62-.36.91-.58,0,0,.01,0,.02-.01.1-.06.21-.11.31-.17.37-.2.74-.4,1.11-.58.78-.39,1.54-.83,2.28-1.3,1.52-.97,2.93-2.08,4.19-3.36.92-.93.38-2.52-.94-2.63Z"/>
          <path class="cls-1" d="m409.99,213.55c-.43.02-.86.05-1.3.08-.41-.52-1.03-.89-1.85-.96-.22-.02-.43-.02-.65-.04-.5-1.01-1.56-1.76-3.06-1.56-5.53.71-10.89,2.61-16.01,4.76-.02,0-.04.02-.06.03-2.36.6-4.73,1.18-7.11,1.7-7.79,1.71-15.63,3.45-23.53,4.54-.93.13-.83,1.68.12,1.66,8.07-.18,16.09-.57,24.08-1.86,1.78-.29,3.56-.61,5.34-.95.57.83,1.45,1.43,2.56,1.48,1.94.08,3.9.05,5.86-.04.7.4,1.55.57,2.52.36,1.35-.3,2.71-.54,4.08-.77,3.19-.24,6.37-.56,9.54-1.01,1.85-.26,3.07-2.2,2.94-3.95-.13-1.71-1.63-3.54-3.5-3.46Z"/>
        </g>
        <path class="cls-1" d="m525.28,285.72c-1.73-1.59-3.35-3.31-4.74-5.2-1.29-1.75-2.7-3.42-3.86-5.27-1.31-2.09-2.47-4.25-3.65-6.41-4.7-8.61-9.46-17.19-14.2-25.77-.55-1-2.03-.23-1.57.81,4.09,9.28,8.17,18.57,12.31,27.83.99,2.22,1.98,4.43,2.81,6.72.82,2.27,1.52,4.52,2.78,6.59,1.35,2.22,2.91,4.24,4.74,6.08,1.75,1.76,4.1,4.21,6.78,4.17,2.08-.03,3.43-1.63,3.17-3.68-.33-2.53-2.82-4.25-4.55-5.85Z"/>
        <g>
          <path class="cls-1" d="m445.21,189.33s.04.08.06.12c-.02-.06-.04-.1-.06-.12Z"/>
          <path class="cls-1" d="m446.54,191.94c-.1-.6-.36-1.2-.76-1.76-.12-.18-.26-.35-.39-.52-.07-.12-.14-.23-.21-.35,0,0,.01,0,.03.02-.18-.44-.46-.88-.69-1.29-.49-.89-1-1.77-1.54-2.63-.59-.95-1.23-1.87-1.87-2.79-.3-.43-.61-.85-.92-1.28-.52-.86-1.04-1.72-1.56-2.58-.77-1.28-2.3-.82-2.66.26-.14.03-.28.06-.43.11-1.45.51-2.54,2.14-2.12,3.72.54,2.04,1.33,4.02,2.4,5.83.23.43.47.85.74,1.25.53.79,1.07,1.51,1.69,2.17.98,1.14,2.09,2.17,3.42,2.96,1.38.82,3.13.58,4.17-.66.02-.02.03-.05.05-.07.65-.58.91-1.51.63-2.39Z"/>
        </g>
        <path class="cls-1" d="m342.59,220.93c-.36-.03-.72-.08-1.08-.11-.06-.83-.62-1.77-1.46-1.93-.81-.15-1.66-.37-2.48-.4-.85-.03-1.74.07-2.58.14-.69.06-1.37.19-2.05.33-.38.08-.77.15-1.14.26-.13.03-.24.08-.36.12-2.05-.41-4.08-.86-6.1-1.4-1.27-.34-1.91,1.58-.63,1.96,1.68.49,3.37.93,5.07,1.33-.12.84.33,1.69,1.09,2.04.33.23.69.41,1.13.42.44.01.89-.08,1.33-.11.06,0,.19-.01.21-.01.17,0,.34-.02.52-.03.51-.02,1.02-.04,1.54-.08.09,0,.12,0,.13-.01,0,0,0,0,.02,0,.17-.01.35-.02.52-.03.35-.02.69-.02,1.04-.04.06,0,.11-.01.16-.02,1.67.02,3.33,0,5,.03,1.58.02,1.71-2.32.14-2.45Z"/>
        <path class="cls-1" d="m274.09,228.01c2.28,15.52,4.62,31.04,7.13,46.53,1.24,7.69,2.29,15.41,3.69,23.07,1.35,7.38,2.49,14.84,4.73,22.02,1.22,3.9,2.8,7.58,4.61,11.13-.51.97-.72,2.07-.36,3.11.81,2.41,1.63,4.81,2.44,7.22-.44.22-.84.5-1.21.81-4.19,2.5-2.3,9.3,2.56,9.61.14,0,.28.01.41.02,1.11.28,2.28.28,3.4,0,4.48-.22,9.33-1.4,12.14-4.65,2.6-3.01,1.09-7.17-2.49-7.7-.09-.46-.24-.91-.5-1.32-4.02-6.31-8.24-12.42-10.85-19.5-2.32-6.28-3.82-13.86-5.43-20.7-3.52-14.94-7.57-29.79-11.59-44.6-2.3-8.48-4.54-16.96-6.86-25.43-.31-1.15-1.98-.8-1.81.38Z"/>
        <path class="cls-1" d="m477.23,352.72c-2.09.42-4.2.33-6.31.16-.6.4-1.33.62-2.15.62-2.49-.01-4.96-.57-7.4-1-2.44-.43-5.08-.66-7.42-1.51-2.45-.89-4.61-3.13-3.91-5.91-2.57-.38-5.11-.87-7.6-1.77-1.14-.41-.81-2.05.38-2.04,4.09.01,8.36.26,12.39-.58,1.56-.33,3.32,1,3.12,2.69-.05.41-.15.79-.28,1.15.19.02.38.03.57.05,3.79.46,7.81.72,11.47,1.85.63.19,1.27.64,1.75,1.2,2.07.47,4.08,1.02,5.96,2.06,1.3.71.8,2.76-.56,3.03Z"/>
        <g>
          <path class="cls-1" d="m521.83,377.65c-6.37.89-11.72,1.94-17.99,1.45-2.95-.23-5.83-1.01-8.61-2.3-3.61-1.67-7.01-3.01-11.02-3.33-7.41-.6-14.94.26-22.38-.02-8.42-.31-16.76-1.67-24.54-5.01-1-.43-1.81,1.26-.82,1.73,13.45,6.48,28.7,7.07,43.35,7.59,1.81.06,3.65.15,5.44.49,2.03.39,3.76,1.29,5.48,2.41,3.07,2,5.89,4.1,9.42,5.23,6.3,2.01,12.85,1.5,19.32.85,1.84-.18,3.69-.36,5.52-.59.84-.1,1.68-.2,2.52-.29.38-.04.76-.07,1.14-.11.22-.02.32-.03.37-.04.04,0,.13,0,.32-.02,3.67-.23,7.27-.32,11.16-1.12,2.41-.49,2.88-3.68.92-5.02-5.61-3.82-13.27-2.81-19.62-1.92Z"/>
          <path class="cls-1" d="m556.93,351.08c-2.7-2.11-6.2-1.77-9.55-1.47-2.77.25-5.53.61-8.31.85-5.8.51-11.61,1.03-17.39,1.72-5.67.68-11.37,1.28-17.09,1.08-5.86-.2-11.72-.7-17.58-.86-1.05-.03-1.45,1.62-.35,1.88,5.71,1.37,11.6,2.07,17.43,2.63,5.96.57,11.87,1.53,17.82,2.22,5.88.68,11.94.76,17.85.43,3.18-.18,6.38-.33,9.54-.71,1.4-.17,2.74-.39,4.08-.85,1.09-.37,2.08-.73,2.98-1.46.61-.49.95-1.07,1.4-1.68.94-1.26.26-2.92-.83-3.77Z"/>
        </g>
        <g>
          <g>
            <path class="cls-1" d="m658.83,379.36c-2.27-.15-4.12-1.04-6.41-1.27-2.14-.21-4.3-.26-6.44-.44-4.7-.4-9.72-.62-14.34.5-2.52.61-4.59,1.91-6.93,2.94-2.54,1.13-5.23,1.79-7.89,2.58-5.1,1.53-10.1,3.34-15.1,5.17-2.61.96-5.2,2.15-7.9,2.83-2.54.65-5.17,1-7.74,1.54-5.7,1.19-11.13,3.16-16.38,5.66-4.42,2.1-8.96,4.45-13.81,5.35-4.02.75-8.15.66-12.22.45-9.4-.49-18.96-1.98-28.1,1.1-1.12.38-.82,2.15.39,1.85,8.33-2.05,16.87.28,25.08,1.82,4.19.79,8.39,1.46,12.66,1.39,5.07-.09,10.05-1.06,14.88-2.59,5.28-1.68,10.72-3.39,15.56-6.14,4.81-2.74,9.29-6.28,14.41-8.39,5.04-2.08,10.13-4.03,15.31-5.74,2.6-.85,5.22-1.73,7.89-2.34,2.72-.63,5.08-.47,7.83-.29,2.71.18,5.41.17,8.1.63,2.03.35,4.4.89,6.89,1.34,2.78.51,5.77.97,8.6.61,2.65-.34,5.31-2.14,7.41-3.71,2.01-1.5.48-4.7-1.74-4.85Z"/>
            <path class="cls-1" d="m651.53,344.28c-5.75-3.98-12.73-6.07-19.71-6.03-2.14.01-2.33,3.34-.18,3.32,5.5-.04,10.96,1.27,15.75,3.99,1.12.63,2.34,1.3,3.3,2.17.18.16.96.84.82,1.14-.14.3-1.7.34-2.02.38-3.56.45-7.12.89-10.68,1.33-6.93.86-13.89,1.72-20.86,2.08-3.45.18-6.88-.6-10.33-.39-3.49.22-6.96,1.07-10.4,1.66-3.83.65-7.67,1.22-11.48,1.96-3.75.73-7.9,1.03-11.46,2.41-1.2.47-1.07,2.63.23,2.88,3.73.71,7.85.2,11.64.12,3.97-.09,7.94-.41,11.9-.69,3.9-.27,8.1-.12,11.89-1.18,1.87-.52,3.68-1.26,5.54-1.83,1.94-.6,3.95-.9,5.94-1.26,7.8-1.41,15.7-2.29,23.56-3.25,1.94-.24,3.9-.43,5.83-.71,1.35-.2,2.75-.6,3.51-1.84,1.55-2.51-.86-4.93-2.78-6.27Z"/>
          </g>
          <path class="cls-1" d="m596.92,362.53c-3.87-.36-7.94-.99-11.8-.42-1.28.19-1.35,2.16-.13,2.5,2.22.63,4.58.84,6.93.93-9.3,5.35-20.78,6.25-30.37,11.09-.88.44-.19,1.76.69,1.35,11.41-5.21,24.75-5.25,35.31-12.48,1.24-.85,1.04-2.82-.63-2.97Z"/>
        </g>
        <path class="cls-1" d="m694.44,364.46c-2.48-.53-5-.81-7.52-1.1-.13-.91-.71-1.74-1.86-2.11-2.93-.95-6.2-.69-8.87.82-2.21-.35-4.75-.83-6.61.4-1.62,1.07-1.61,3.44.34,4.17,4.14,1.54,8.95,1.47,13.26.44.65.07,1.29.15,1.94.22,2.14.25,4.3.46,6.43.79.84.13,1.71.28,2.55.5-8.26,4.28-17,7.34-26.1,9.23-.97.2-.65,1.62.31,1.49,5.81-.79,11.55-2.04,17.18-3.66,2.77-.8,5.51-1.72,8.21-2.73,2.11-.79,5.46-1.49,5.65-4.23.19-2.77-2.74-3.77-4.93-4.24Z"/>
        <path class="cls-1" d="m260.97,310.4c.1-.28.1-.59-.03-.86-.82-1.73-2.26-3.09-3.69-4.33-1.55-1.35-3.17-2.59-4.94-3.65-3.29-1.97-7.1-3.43-10.97-3.61-2.56-.11-6.13.21-7.71,2.46-1.52,2.17-1.21,5.51-.07,7.75,2.2,4.35,6.91,5.58,11.24,6.69,2.32.59,4.64,1.19,7,1.63,1.44.27,2.85.58,4.31.67,1.47.09,3.45.19,4.7-.68,1.48-1.03,2.36-2.71,1.44-4.48-.31-.61-.76-1.13-1.29-1.58Z"/>
        <path class="cls-1" d="m545.41,237.37c-2.94-3.49-7.19-.35-9.12,2.41-2.15,3.09-4.09,6.32-5.8,9.67-1.94,3.79-3.82,7.81-4.09,12.12-.06.89,1.03,1.08,1.51.49,1.63-2,2.95-4.22,4.25-6.44.19,1.62,1.48,3.21,3.33,2.62,3.86-1.22,6.49-5.27,8.2-8.76.88-1.79,1.61-3.62,2.16-5.53.65-2.24,1.21-4.6-.46-6.57Z"/>
        <path class="cls-1" d="m585.29,255.31c-4.41,4.21-9.94,7.35-15.54,9.69-5.8,2.43-11.84,4.32-18.17,3.7-2.41-.24-3.82-3.88-1.59-5.18-.04-.42.08-.84.47-1.15,4.58-3.53,9.57-6.53,14.97-8.6,5.5-2.1,11.17-3.26,16.98-4.07,3.13-.43,5.3,3.29,2.87,5.6Z"/>
        <path class="cls-3" d="m281.86,46.49c-.75-1.28-1.53-2.53-2.3-3.79-.89-1.55-1.71-3.13-2.48-4.74-.66-1.51-1.31-3.02-1.99-4.52-.38-.83-1.09-1.47-1.92-1.87-1.19-2.56-2.35-5.13-3.62-7.64l-.07.04c-1.03-1.88-3.07-2.94-5.32-2.15-2.65.94-3.47,3.68-2.47,6.14,1.6,3.96,3.61,7.8,5.52,11.62,1.92,3.84,3.91,7.64,5.97,11.4,1.1,2.01,3.81,3.1,5.9,1.9.85-.49,1.47-1.15,1.86-1.91,1.25-1.06,1.91-2.78.92-4.47Z"/>
        <path class="cls-3" d="m269.22,58.04c-1.04.1-2.04-.5-2.86-1.07-1.12-.77-2.16-1.66-3.19-2.54-1.16-.99-2.22-2.09-3.27-3.19-.53-.55-1.05-1.11-1.57-1.68-.03-.04-.1-.13-.19-.23-.23-.42-.47-.84-.66-1.28-.26-.72-1.25-1.48-1.97-1.67-.73-.2-1.43-.19-2.15.06-.64.23-1.21.68-1.62,1.23-.68.02-1.35.18-1.92.51-.96.55-1.72,1.39-2.17,2.38-1.36,1.51-1.88,3.84-.8,5.69.05.08.1.16.15.24.07.19.15.38.24.56h0c.37.93,1.15,1.81,1.78,2.65.36.55.72,1.1,1.09,1.64.25.44.52.88.75,1.33.33.64.82,1.19,1.4,1.62.46.6.92,1.21,1.4,1.8,1.62,2.01,5.08,2.17,7.03.53,1.21.36,2.53.2,3.67-.59,1.62-1.13,2.55-3.67,1.4-5.49-.12-.19-.23-.4-.35-.6,1.38.61,2.83.95,4.34.6,1.63-.38,1.08-2.65-.52-2.5Z"/>
        <path class="cls-3" d="m265.55,83.39c.17-.77-.34-1.67-1.36-1.45-3.47.76-7.01,1.15-10.49,1.92-1.72.38-3.41.87-5.15,1.16-.79.14-1.58.29-2.37.43-.05,0-.33.03-.61.07-.3.02-.59.04-.89.07-.44-.01-.86.04-1.27.19-1.78.53-3.4,1.98-3.43,3.98-.02,1.8,1.08,3.9,2.98,4.34.3.07.6.1.9.15-.22,1-.19,2.06.13,2.95.84,2.38,3.35,3.91,5.89,3.36.2-.04.41-.09.61-.13.61.09,1.2.12,1.9.02.32-.05.63-.12.95-.18.69-.14,1.38-.31,2.07-.49,1.69-.46,3.35-1.05,4.99-1.68,1.03-.4,2.08-1.68,2.48-2.76,1.89-.9,3.68-1.94,5.37-3.31,1.63-1.32,2.11-4.17,1.07-5.98-.82-1.44-2.21-2.42-3.78-2.66Z"/>
        <path class="cls-2" d="m401.92,321.3c-.9,2.89-3.73,3.67-6.34,4.25-2.01.44-4.02.89-6.03,1.33-1.56.34-2.9-.16-3.87-1.09-.19.04-.38.09-.57.13-1.78.36-3.56.69-5.35,1.02-1.9.34-3.81.66-5.72.96-4.16,1.32-8.5,2.03-12.77,2.9-1.48.3-2.96.6-4.44.91-.25.09-.49.16-.74.24,0,0,0,.02,0,.03-.15.03-.3.08-.45.12-.72.23-1.44.43-2.16.62-1.66.55-3.35,1.2-5.02,1.71-2.36.72-4.24,1.43-6.76,2.47-1.33.55-2.81.56-4.1.14-2.08.9-4.23,1.6-6.39,2.03-3.72.75-6.33-3.36-4.49-6.51.55-.95,1.11-1.9,1.67-2.85-1.21-.48-2.41-1.01-3.58-1.7-2.25-1.31-4.31-2.92-6.24-4.66-7.62-6.88-11.85-16.62-15.46-26.02-3.72-9.68-7.26-19.44-8.25-29.84-.12-1.29,1.84-1.75,2.01-.42,1.6,12.55,6.58,24.36,12.73,35.32,2.99,5.34,6.47,10.34,10.9,14.6,1.81,1.75,3.81,3.28,5.97,4.58,1.09.66,2.22,1.25,3.4,1.73,1.09.45,2.4,1.12,3.57,1.3,1.27.19,2.31.92,2.82,1.94.48-.31.97-.62,1.42-.94,0,0,0,0,0,0,.35-.28.72-.54,1.12-.78,1.61-.98,3.52-.67,5,.29.66-.22,1.31-.43,1.97-.63,2.81-.86,5.63-1.01,8.46-1.48.76-.13,1.49-.07,2.17.13,1.16-.16,2.33-.31,3.5-.43,3.71-.39,7.48-.76,11.23-.59,2.45-.44,4.9-.9,7.33-1.41,1.88-.39,3.76-.8,5.63-1.23.38-.09.78-.17,1.17-.25.34-.33.75-.63,1.27-.85.82-.36,1.61-.74,2.49-.85.9-.29,1.8-.59,2.7-.88.36-.12.72-.23,1.09-.35,1.29-1.64,3.63-2.49,5.67-1.81,2.9.97,4.33,3.94,3.43,6.84Z"/>
        <path class="cls-4" d="m522.52,329.24c-5.31-1.29-10.59-2.62-15.93-3.74-4.74-.99-9.38-2.32-13.94-3.97-7.46-2.7-14.64-6.11-21.97-9.12,1-1.52,0-3.07-1.41-3.75.35-.7.45-1.48.17-2.26,1.53-1.17,1.39-3.29.24-4.48,2.24-1.25,4.34-2.7,6.11-4.43,1.18-1.15.2-3.44-1.54-3-1.04.26-2.07.59-3.09.95-.39-.26-.92-.32-1.39.05-.42.33-.86.63-1.29.95-3.54,1.43-7,3.17-10.47,4.62-3.61,1.51-7.45,2.78-11.1,4.37-.71.17-1.43.34-2.14.52-.94.13-1.47.67-1.68,1.34-.37.2-.74.39-1.09.61-.86.51-.65,1.87.41,1.94.48.03.96.02,1.44.02.46.41,1.08.66,1.85.56.42-.05.84-.12,1.25-.17.12.26.28.5.49.69,2.2,2,4.59,4.13,7.53,4.93,1.44.39,2.92.48,4.35.93,1.22.39,2.3.97,3.42,1.59,5.32,2.99,10.85,5.45,16.65,7.35,4.33,1.42,8.73,2.42,13.18,3.21,3.39,1.29,6.84,2.42,10.36,3.29,3.08.76,6.13,1.28,9.3,1.2,3.18-.08,6.35-.02,9.53-.19,2.16-.11,3.23-3.44.75-4.05Z"/>
        <path class="cls-4" d="m360.27,312.97c-.66.02-1.33.04-1.99.05-.2-.19-.43-.36-.71-.5-1.93-.92-3.91-1.51-5.93-1.89-.49-.49-1.08-.87-1.79-1.04-2.59-.63-5.18-1.19-7.77-1.78-2.57-.58-5.16-1.41-7.79-1.59-.95-.26-1.97-.02-2.84.49-.91-.38-1.83-.77-2.76-1.04-.13-.04-.26-.06-.4-.07-.08-.08-.16-.15-.24-.23-1.81-1.82-3.66-3.59-5.39-5.49-3.32-3.64-6.37-7.67-9.01-11.81-6.13-9.64-9.97-20.23-13.69-30.96-2.07-5.96-4.32-11.98-5.02-18.28-.13-1.13-2.01-.99-1.99.15.1,5.69,1.49,11.2,2.65,16.73,1.24,5.9,2.6,11.75,4.3,17.54,3.27,11.14,7.05,22.09,14.24,31.37,1.87,2.41,3.9,4.67,6.22,6.67,1.24,1.07,2.55,2.09,3.93,2.96.71.45,1.45.91,2.22,1.24,1.06.45,2.06.32,3.05.27.94-.05,1.98-.52,2.66-1.25,2.2,1.24,4.71,1.91,7.14,2.58.15.04.3.07.45.11.79,1.22,2.12,2.06,3.67,2.18,4.29.35,8.48.36,12.58-.87.42-.03.81-.17,1.16-.37.02,0,.05-.01.07-.02,0,0,0-.01,0-.02.55-.33,1-.83,1.32-1.41.64-.13,1.27-.25,1.91-.37,1.85-.37,1.72-3.42-.25-3.37Z"/>
        <path class="cls-4" d="m371.31,312.21c-.47-.07-.94-.16-1.41-.19-.62-.04-1.25.02-1.86.08-.47.05-.97.07-1.43.17-.23.05-.47.11-.7.16-.12.03-.23.05-.35.08-.32.09-.57.24-.82.42-.05.03-.1.06-.14.1-.02.02-.05.03-.07.05,0,0,0,0,0,0-.23.21-.43.48-.5.77-.27.96.21,1.94,1.17,2.27.39.14.73.16,1.14.11.1-.01.2-.03.31-.04.24-.03.48-.06.72-.09.49-.06.98-.19,1.46-.29.53-.1,1.06-.23,1.57-.41.5-.18.99-.37,1.49-.55.28-.1.51-.41.63-.66.13-.27.19-.59.12-.89-.17-.65-.66-1.03-1.31-1.13Z"/>
        <path class="cls-4" d="m413.49,298.73c-3.55,1.39-6.88,3.26-10.42,4.68-3.57,1.44-7.25,2.54-11,3.37-1.35.3-.92,2.31.43,2.09,3.97-.65,7.89-1.61,11.7-2.92,3.78-1.3,7.51-2.76,10.69-5.22,1.18-.91-.2-2.47-1.4-2.01Z"/>
        <path class="cls-4" d="m299.55,133.29c-2.38,15.36-3.81,31.06-3.46,46.68-.65.22-1.23.64-1.63,1.26-.36.57-.59,1.2-.77,1.84-.74.76-1.24,1.77-1.38,2.95-.39,3.3-.91,6.58-1.47,9.85-.26,1.84,1.07,3.55,2.69,4.26-.27,3.02-.45,6.15.62,8.93.43,1.13,2.28.45,2-.7-.46-1.89-.24-3.79.05-5.69.12-.79.25-1.58.38-2.37,1.36-.4,2.57-1.4,2.92-2.83.01-.05.02-.1.03-.15.08-.15.13-.32.13-.52,0-.02,0-.05,0-.07.39-1.64.74-3.29,1.04-4.95.35-.71.62-1.45.77-2.25.19-1,.09-2,.05-3.01-.04-1.15-.45-2.31-1.14-3.2,0-.34-.04-.69-.11-1.03,0,0,0,0,0,0-.1-.52-.33-1.04-.76-1.51-.06-.06-.12-.1-.18-.16-.17-15.77.25-31.51,2.17-47.23.15-1.25-1.74-1.31-1.93-.11Z"/>
      </g>
      <g>
        <path class="cls-1" d="m1.18,393.47c6.28-.44,12.75.71,19.03,1,6.35.29,12.7.09,19.04.67,6.2.56,12.39.27,18.6.69,6.2.42,12.39,1.29,18.57,1.94,6.19.66,12.38,1.3,18.58,1.94,6.48.66,13,.77,19.49,1.36,12.58,1.13,24.91,3.69,37.33,5.88,14.02,2.47,28.23,3.67,42.33,5.59,2.16.29,2.2,3.47-.08,3.47-12.74-.03-25.45-.79-38.19-1.1-6.21-.15-12.44-.02-18.65,0-6.38.01-12.71-.37-19.06-.84-6.37-.46-12.7-1.58-19.02-2.51-6.16-.91-12.39-1.44-18.57-2.15-6.34-.72-12.68-1.46-19.01-2.2-3.26-.38-6.54-.84-9.76-1.49-3.09-.62-6.1-1.61-9.21-2.12-7.05-1.14-14.01-2.36-20.99-3.91-6.83-1.52-14.11-1.79-20.79-3.9-1.32-.42-.91-2.21.37-2.3Z"/>
        <path class="cls-1" d="m174.77,388.04c-4.8-1.51-9.38-3.31-13.91-5.51-4.12-2-8.21-4.4-12.52-5.92-4.2-1.48-8.37-2.57-12.58-3.35-1.42-.02-2.83-.04-4.24-.13-1.51-.1-2.81-.53-4.13-.99-2.57-.21-5.17-.31-7.83-.3-11.26.05-22.9.99-33.49-3.62-1.72-.75-1.64-3.66.56-3.53,7.75.48,15.68.5,23.44.18,3.78-.16,7.77-.04,11.5-.65,1.55-.25,3.15-.6,4.6-1.19,1.03-.42,2.14-1.02,3.21-1.29,1.18-.29,2.54-.25,3.75-.36,7.43-.68,14.86-1.42,22.25-2.54,7.47-1.13,15.05-2.5,22.63-2.3,2.15.06,4.15.49,6.26.77,1.5.2,3.65-.4,5.34-.71,4.16-.78,8.23-1.84,12.3-2.99,2.1-.59,2.71,2.45.8,3.2-5.48,2.15-11.05,4.39-16.69,6.14-2.67,2.76-6.42,4.35-9.97,5.64-3.75,1.36-7.51,2.27-11.46,2.84-.96.14-1.94.25-2.91.38,7.84,1.46,15.63,3.13,23.48,4.61.2.04.35.07.47.09.66.1,1.33.19,1.99.27,1.19.14,2.39.25,3.59.36,2.63.24,5.26.34,7.9.2,2.21-.12,3.64-.34,6.33-.96,3.3-.77,6.65-1.37,10.03-1.7,2.64-.26,5.61-.31,8.19.45,2.03.6,5.31,2.3,6.53,4.6.81,1.53,1.04,3.07,2.05,4.42,1.55,2.07,1.86,4.42,2.36,6.89.19.93.57,2.44,1.1,2.76-.07-.04,1.55.14,1.45.15.38,0,1.88-.3,2.68-.43,2.01-.32,3.82-.1,5.81.16,6.24.81,11.15,1.63,17.07,2.52,23.19,3.49,46.77,6.03,70.23,4.13,5.65-.46,11.9-1.33,18.1-2.61,6.34-1.31,12.64-2.94,18.76-5.02,11.86-4.03,24.64-7.07,37.27-6.85,2.24.04,2.69,3.49.44,3.97-6.43,1.37-12.02,4.1-17.65,7.43-2.63,1.55-5.27,3.06-7.93,4.57-3.17,1.8-6.61,3.05-10.03,4.32-12.65,4.69-25.89,7.03-39.3,8.16-26.21,2.21-52.52-1.08-78.39-5.11-3.87-.6-7.71-1.31-11.55-2.07-3.87-.77-7.07-2.75-9.61-5.03-2.07-1.86-3.77-4.54-4.2-7.31-.48-3.08.69-6.11-.46-9.02-.42-.07-.85-.09-1.32-.07-.48.02-1.99-.11-2.76-.2-1.4-.18-3.43-.2-5.22.15-5.06,1-9.51,3.42-14.58,4.42-9.97,1.96-20.09,1.01-29.74-2.02Z"/>
      </g>
      <path class="cls-1" d="m121.39,444.49c4.92.44,9.86.38,14.79.55,4.92.17,9.77.24,14.69-.02,5.24-.28,10.54-.88,15.79-.81,2.41.03,5.1.05,7.41.82,1.2.4,2.19,1.16,3.44,1.42,1.34.28,2.74.27,4.1.36,11.21.75,22.29,2.68,33.46,3.83,11.4,1.18,22.82,1.76,34.28,2.09,12.92.37,25.8.39,38.71-.32,1.46-.08,1.35,2.11-.05,2.24-23.2,2.18-46.33,2.27-69.52.03-5.83-.56-11.64-1.26-17.44-2.06-5.61-.78-11.29-1.85-16.97-1.89-2.37-.01-5.21-.26-7.39.82-1.25.62-2.21,1.38-3.54,1.86-1.36.49-2.74.9-4.15,1.22-5.01,1.15-10.09,2.02-15.17,2.79-5.83.87-12.07,1.61-17.97.93-6.5-.75-12.35-3.41-17.13-7.86-2.2-2.05-.36-6.27,2.66-6Z"/>
      <path class="cls-1" d="m69.04,447.09c1.52-.54,3.06-.5,4.66-.52,1.54-.03,3.08.05,4.62.11,3.08.12,6.16.25,9.25.37,1.81.07,1.72,2.72-.07,2.8-3.09.12-6.18.25-9.26.37-1.55.06-3.08.13-4.63.11-1.6-.03-3.1,0-4.63-.54-1.36-.48-1.22-2.24.07-2.7Z"/>
      <path class="cls-1" d="m32.78,454.56c1.88-.24,3.78-.31,5.67-.44,1.85-.13,3.7-.26,5.55-.38.6-.04,1.11.58,1.09,1.15-.02.66-.54,1.03-1.15,1.09-1.82.17-3.63.35-5.45.52-1.81.17-3.63.41-5.45.49-1.36.05-1.65-2.25-.27-2.42Z"/>
      <path class="cls-1" d="m170.38,311.56s0-.01,0-.02c.03,0,.06,0,.08,0,.27-.06.55-.09.86-.09,0,0,.02,0,.03,0,6.19-.69,12.63-.44,18.84-.45,6.54-.01,13.08.06,19.61.2,2.29.05,4.18,2.05,4.13,4.33-.06,2.46-2.04,3.97-4.33,4.13-4.09.28-8.22.12-12.28-.42-.14-.02-.27-.06-.41-.09-2.18-.07-4.35-.15-6.53-.2-3.14-.08-6.28-.14-9.43-.21-3.24-.07-6.58.11-9.8-.23-4.14-.43-4.4-6.08-.77-6.94Z"/>
    </g>
  </g>
</svg>